<svg width="24" height="24" fill="none" xmlns="http://www.w3.org/2000/svg"><path fill-rule="evenodd" clip-rule="evenodd" d="M12 2.4c1.718 0 3.065 1.35 3.065 3.075 0 1.723-1.347 3.074-3.066 3.074-1.72 0-3.066-1.35-3.066-3.074C8.933 3.75 10.28 2.4 12 2.4zm0 1.5c-.895 0-1.571.673-1.571 1.575 0 .896.676 1.574 1.57 1.574s1.57-.678 1.57-1.574c0-.897-.676-1.575-1.57-1.575zm9.723 6.826l2.246 12.381c.08.224 0 .449-.15.593-.148.224-.372.3-.596.3H.775c-.224 0-.448-.076-.597-.3a.582.582 0 01-.149-.598l2.246-12.456c.075-.373.373-.598.745-.598h5.014l.666 1.35H3.3l-2.1 11.43h21.6l-2.1-11.43h-5.635l.973-1.275h4.94c.372 0 .67.23.745.603z" fill="#1B365D"/><path d="M11.999 0c-3.066 0-5.61 2.551-5.61 5.625 0 1.126.75 2.775 1.645 4.425l.75 1.574a51.172 51.172 0 002.544 3.826c.15.225.373.3.596.3.224 0 .447-.15.597-.3a52.37 52.37 0 002.544-3.826l.973-1.5c.9-1.649 1.645-3.303 1.645-4.424C17.61 2.55 15.065 0 12 0zm0 13.652c-1.57-2.177-4.114-6.228-4.114-8.027 0-2.252 1.868-4.125 4.114-4.125 2.246 0 4.114 1.873 4.114 4.125 0 1.724-2.618 5.854-4.114 8.027z" fill="#1B365D"/></svg>