<svg width="41" height="12" viewBox="0 0 41 12" xmlns="http://www.w3.org/2000/svg">
<path d="M34.853 0.645235C34.7588 0.738605 34.7056 0.865534 34.7051 0.998133C34.7043 1.13103 34.7565 1.25878 34.8501 1.35313L39 5.49804L0.499975 5.49767C0.223863 5.49771 -2.52583e-07 5.72157 -2.40514e-07 5.99769C-2.28444e-07 6.2738 0.223863 6.49766 0.499975 6.49766L39 6.49804L34.8501 10.6429C34.654 10.839 34.654 11.1569 34.8501 11.353C35.0461 11.549 35.364 11.549 35.5601 11.353L40.56 6.35302C40.7539 6.15799 40.7539 5.84303 40.56 5.64804L35.5601 0.648116C35.3656 0.452095 35.049 0.450805 34.853 0.645235Z" />
</svg>
