<svg width="22" height="12" viewBox="0 0 22 12" xmlns="http://www.w3.org/2000/svg">
<path d="M5.85237 0.645238C5.94651 0.738607 5.99971 0.865535 6.00026 0.998135C6.00104 1.13103 5.94887 1.25878 5.85525 1.35314L1.70531 5.49805L21.5 5.49804C21.7761 5.49809 22 5.72195 22 5.99806C22 6.27418 21.7761 6.49804 21.5 6.49804L1.70535 6.49804L5.85529 10.6429C6.05135 10.839 6.05135 11.1569 5.85529 11.353C5.65923 11.549 5.34135 11.549 5.14529 11.353L0.145359 6.35302C-0.0485136 6.15799 -0.0485137 5.84304 0.145359 5.64805L5.14529 0.648118C5.33976 0.452098 5.6563 0.450807 5.85237 0.645238Z"/>
</svg>
