<svg width="28" height="28" xmlns="http://www.w3.org/2000/svg">
    <g clip-path="url(#clip0)">
        <path d="M27.18 18.102a.82.82 0 00-.821.82v1.64h-1.696V8.258a5.75 5.75 0 00-5.743-5.742H8.952C4.04 2.516 0 6.51 0 11.466v9.917c0 .453.367.82.82.82h2.545a4.11 4.11 0 004.02 3.281 4.109 4.109 0 004.02-3.28H27.18a.82.82 0 00.82-.821v-2.461a.82.82 0 00-.82-.82zM11.536 9.078v3.281H6.613V9.08h4.923zM4.972 12.36H1.641c.032-.564-.138-1.727.401-3.28h2.93v3.28zm2.412 11.485a2.464 2.464 0 01-2.461-2.461 2.464 2.464 0 012.461-2.461 2.464 2.464 0 012.462 2.46 2.464 2.464 0 01-2.462 2.462zm9.075-3.282V9.079h3.282v11.485h-3.282zm4.922 0V8.258a.82.82 0 00-.82-.82h-4.923a.82.82 0 00-.82.82v12.305h-3.414a4.11 4.11 0 00-4.02-3.282 4.11 4.11 0 00-4.02 3.282H1.641V14h10.715a.82.82 0 00.82-.82V8.258a.82.82 0 00-.82-.82H2.855a7.31 7.31 0 016.097-3.282h9.968a4.107 4.107 0 014.102 4.102v12.305h-1.64z" />
        <path d="M7.434 22.203a.82.82 0 100-1.64.82.82 0 000 1.64z" />
    </g>
    <defs>
        <clipPath id="clip0">
            <path d="M0 0h28v28H0z" />
        </clipPath>
    </defs>
</svg>