<svg width="26" height="25" xmlns="http://www.w3.org/2000/svg"><path d="M15.6 22.88c-.201.05-.406.095-.609.133a.979.979 0 00.357 1.923c.241-.045.485-.098.724-.157a.978.978 0 10-.472-1.898zM22.833 9.77a.975.975 0 001.236.621.978.978 0 00.62-1.236 12.128 12.128 0 00-.254-.696.978.978 0 10-1.816.726c.077.192.149.389.214.585zM18.777 21.484c-.172.114-.35.224-.53.328a.978.978 0 00.978 1.694c.213-.123.425-.254.63-.39a.978.978 0 00-1.078-1.632zM25.297 12.502a.978.978 0 00-1.954.077 10 10 0 01.005.622.977.977 0 101.956.043c.005-.246.003-.496-.007-.742zM22.673 18.911a.978.978 0 00-1.37.196c-.123.165-.254.329-.388.486a.978.978 0 001.49 1.268c.16-.188.315-.383.463-.58a.978.978 0 00-.195-1.37zM24.112 15.375a.978.978 0 00-1.226.641c-.062.197-.13.395-.204.589a.979.979 0 001.827.696c.088-.23.17-.466.243-.7a.978.978 0 00-.64-1.226zM11.332 23.021a10.1 10.1 0 01-2.509-.797l-.027-.015a10.771 10.771 0 01-.559-.283 10.447 10.447 0 01-.973-.608c-4.601-3.241-5.708-9.622-2.466-14.223.705-1 1.558-1.834 2.509-2.495l.035-.025c3.35-2.309 7.9-2.464 11.458-.092l-.764 1.104c-.212.308-.082.532.29.498l3.32-.297a.547.547 0 00.495-.715l-.892-3.212c-.1-.36-.355-.403-.568-.096l-.765 1.107A12.08 12.08 0 0011.064.99c-.313.054-.622.12-.926.197l-.006.002A12.06 12.06 0 003.409 5.68l-.042.05a11.576 11.576 0 00-.423.61l-.027.048A12.059 12.059 0 00.989 13.5v.025c.011.246.03.495.057.74.001.015.005.03.008.046a12.071 12.071 0 003.508 7.286l.012.013.005.004c.478.471.998.908 1.558 1.302a12.06 12.06 0 004.85 2.03.978.978 0 10.345-1.926z" /><path d="M12.542 5.071a.792.792 0 00-.792.791v7.885l7.21 3.727a.791.791 0 10.727-1.406l-6.355-3.285v-6.92a.791.791 0 00-.79-.792z" /></svg>