<svg width="30" height="23" fill="none" xmlns="http://www.w3.org/2000/svg"><path d="M7.564 6.095c0-1.346-1.1-2.447-2.447-2.447A2.453 2.453 0 002.67 6.095c0 1.347 1.1 2.448 2.447 2.448 1.346 0 2.447-1.101 2.447-2.448zm-3.612 0c0-.638.521-1.159 1.16-1.159.637 0 1.158.521 1.158 1.16 0 .638-.52 1.159-1.159 1.159-.638 0-1.159-.521-1.159-1.16zM2.149 21.691a.864.864 0 01-.855-.966c.053-.433.44-.755.878-.755h4.725c1.206 0 2.212-.983 2.189-2.19a2.153 2.153 0 00-2.148-2.107h-.322a.862.862 0 01-.861-.86v-2.196H4.467v2.195c0 1.189.96 2.149 2.149 2.149h.298c.44 0 .826.322.878.755a.86.86 0 01-.854.966H2.19c-1.206 0-2.213.984-2.19 2.19a2.153 2.153 0 002.149 2.107h27.18a.643.643 0 100-1.288H2.15z" fill="#1B365D"/><path d="M5.111.979a5.12 5.12 0 00-5.11 5.116c0 3.132 3.418 5.79 4.466 6.527h1.288c1.048-.737 4.467-3.4 4.467-6.527A5.113 5.113 0 005.112.979zm1.792 8.974a14.693 14.693 0 01-1.792 1.54A14.34 14.34 0 013.337 9.97c-.936-.942-2.049-2.388-2.049-3.88a3.828 3.828 0 013.823-3.824A3.828 3.828 0 018.934 6.09c0 1.487-1.1 2.927-2.031 3.864zM13.822 14.296c.299 0 .591.035.866.106l1.47-3.53-1.277-.428a.585.585 0 01-.368-.738.585.585 0 01.737-.368l1.909.638a.574.574 0 01.31.76l-.363.879 5.099 1.323.521-1.224h-.808a.577.577 0 01-.58-.58c0-.321.258-.579.58-.579h2.494c.322 0 .58.258.58.58 0 .322-.258.58-.58.58h-.416l-.772 1.808 1.13 1.318a3.698 3.698 0 015.626 3.15 3.698 3.698 0 01-3.695 3.693 3.697 3.697 0 01-3.647-3.114h-1.955a.566.566 0 01-.468-.24l-3.765-5.14-.69 1.656a3.689 3.689 0 011.756 3.144 3.698 3.698 0 01-3.694 3.694 3.698 3.698 0 01-3.694-3.694 3.698 3.698 0 013.694-3.694zm12.457 6.229a2.536 2.536 0 000-5.07 2.59 2.59 0 00-1.165.281l1.605 1.874a.58.58 0 01-.44.96h-2.464a2.536 2.536 0 002.464 1.955zm-1.264-3.114l-2.306-2.693-1.154 2.692h3.46zm-4.473-.586l1.2-2.798-4.004-1.042 2.805 3.84zm-6.72 3.7c1.399 0 2.535-1.136 2.535-2.535 0-.843-.416-1.592-1.048-2.049l-.948 2.272a.574.574 0 01-.762.31.574.574 0 01-.31-.761l.949-2.277a2.536 2.536 0 00-2.945 2.5c0 1.398 1.13 2.54 2.529 2.54z" fill="#1B365D"/></svg>