<svg width="20" height="22" viewBox="0 0 20 22" xmlns="http://www.w3.org/2000/svg">
<path fill-rule="evenodd" clip-rule="evenodd" d="M19.5409 8.00907C19.6623 8.13055 19.7295 8.29714 19.7296 8.46381L19.7297 8.46506V20.0664C19.7297 21.1317 18.8634 22 17.7961 22H2.32733C1.26239 22 0.393738 21.134 0.393738 20.0664V8.46506L0.393781 8.46381C0.394039 8.30436 0.455441 8.14052 0.576226 8.01608C0.577239 8.01503 0.578187 8.01393 0.579134 8.01283C0.580238 8.01155 0.58134 8.01028 0.582543 8.00907L2.97186 5.61975V0.644531C2.97186 0.288578 3.26044 0 3.61639 0H16.507C16.863 0 17.1516 0.288578 17.1516 0.644531V5.61975L19.5409 8.00907ZM18.1736 8.46484L17.1516 7.44275V9.48694L18.1736 8.46484ZM4.26093 5.8865V5.88693V10.776L7.75055 14.2656H12.3729L15.8625 10.776V5.88693V5.8865V1.28906H4.26093V5.8865ZM2.97186 9.48694V7.44275L1.94976 8.46484L2.97186 9.48694ZM6.57209 14.9102L1.6828 10.0209V19.7994L6.57209 14.9102ZM7.75055 15.5547L2.59434 20.7109H17.5291L12.3729 15.5547H7.75055ZM13.5513 14.9102L18.4406 19.7994V10.0209L13.5513 14.9102ZM5.54999 7.08984C5.54999 4.60208 7.57395 2.57812 10.0617 2.57812C12.5495 2.57812 14.5734 4.60208 14.5734 7.08984C14.5734 8.15603 13.706 9.02344 12.6398 9.02344C12.145 9.02344 11.6931 8.83644 11.3507 8.52955C11.0084 8.83639 10.5565 9.02344 10.0617 9.02344C8.99552 9.02344 8.12811 8.15603 8.12811 7.08984C8.12811 6.02366 8.99552 5.15625 10.0617 5.15625C11.1279 5.15625 11.9953 6.02366 11.9953 7.08984L11.9954 7.09964C12.0117 7.48808 12.3151 7.73438 12.6398 7.73438C12.9952 7.73438 13.2844 7.44524 13.2844 7.08984C13.2844 5.31287 11.8387 3.86719 10.0617 3.86719C8.28473 3.86719 6.83905 5.31287 6.83905 7.08984C6.83905 8.19281 7.39597 9.20812 8.32882 9.80577C9.28483 10.4182 10.4705 10.4764 11.5817 9.96514C11.9051 9.81638 12.2878 9.95796 12.4366 10.2813C12.5854 10.6047 12.4438 10.9875 12.1205 11.1362C10.6008 11.8354 8.96557 11.7446 7.63341 10.8912C6.32884 10.0553 5.54999 8.63427 5.54999 7.08984ZM10.0617 7.73438C10.3818 7.73438 10.6474 7.49955 10.6972 7.19323C10.6905 7.13432 10.6921 7.07472 10.7017 7.01615C10.665 6.69539 10.3922 6.44531 10.0617 6.44531C9.70631 6.44531 9.41718 6.73445 9.41718 7.08984C9.41718 7.44524 9.70631 7.73438 10.0617 7.73438Z" />
</svg>
