<svg width="18" height="19" viewBox="0 0 18 19" xmlns="http://www.w3.org/2000/svg">
<path d="M8.28125 11.8438C8.51562 11.6094 8.51562 11.1797 8.28125 10.9453L7.30469 9.96875C7.07031 9.73438 6.64062 9.73438 6.40625 9.96875L2.8125 13.5625L1.5625 12.3125C0.976562 11.6875 0 12.1172 0 12.9375V17.3125C0 17.8594 0.390625 18.25 0.898438 18.25H5.27344C6.13281 18.25 6.5625 17.2734 5.9375 16.6875L4.6875 15.4375L8.28125 11.8438ZM9.17969 7.19531C8.94531 7.42969 8.94531 7.85938 9.17969 8.09375L10.1562 9.07031C10.3906 9.30469 10.8203 9.30469 11.0547 9.07031L14.6875 5.4375L15.8984 6.72656C16.4844 7.35156 17.5 6.92188 17.5 6.0625V1.6875C17.5 1.17969 17.0703 0.75 16.5625 0.75H12.1875C11.3281 0.75 10.8984 1.76562 11.5234 2.35156L12.8125 3.5625L9.17969 7.19531Z" />
</svg>
