<svg width="20" height="21" viewBox="0 0 20 21" xmlns="http://www.w3.org/2000/svg">
<path d="M16.875 13H15.625C15.2734 13 15 13.3125 15 13.625V18H2.5V5.5H8.125C8.4375 5.5 8.75 5.22656 8.75 4.875V3.625C8.75 3.3125 8.4375 3 8.125 3H1.875C0.820312 3 0 3.85938 0 4.875V18.625C0 19.6797 0.820312 20.5 1.875 20.5H15.625C16.6406 20.5 17.5 19.6797 17.5 18.625V13.625C17.5 13.3125 17.1875 13 16.875 13ZM19.0625 0.5H14.0625C13.2031 0.5 12.7734 1.51562 13.3984 2.10156L14.7656 3.50781L5.27344 13.0391C5.07812 13.1953 4.96094 13.4297 4.96094 13.7031C4.96094 13.9766 5.07812 14.2109 5.27344 14.3672L6.13281 15.2266C6.32812 15.4219 6.5625 15.5391 6.79688 15.5391C7.07031 15.5391 7.30469 15.4219 7.46094 15.2266L16.9922 5.73438L18.3984 7.10156C18.9844 7.6875 20 7.29688 20 6.4375V1.4375C20 0.929688 19.5703 0.5 19.0625 0.5Z"/>
</svg>
