<svg width="24" height="16" viewBox="0 0 24 16" xmlns="http://www.w3.org/2000/svg">
<path fill-rule="evenodd" clip-rule="evenodd" d="M11.9999 0C18.5244 0 23.6331 6.88831 23.8474 7.18152C24.0508 7.45947 24.0508 7.83716 23.8474 8.11536C23.6331 8.40845 18.5244 15.2968 11.9999 15.2968C5.47534 15.2968 0.366455 8.40845 0.152344 8.11511C-0.0507812 7.83691 -0.0507812 7.45947 0.152344 7.18127C0.366455 6.88831 5.47534 0 11.9999 0ZM1.79907 7.64783C3.03125 9.14246 7.19385 13.7142 11.9999 13.7142C16.8163 13.7142 20.9701 9.14478 22.2007 7.64893C20.968 6.15344 16.8057 1.5824 11.9999 1.5824C7.18347 1.5824 3.02966 6.15186 1.79907 7.64783ZM7.25244 7.64819C7.25244 5.03052 9.38208 2.90088 11.9998 2.90088C14.6173 2.90088 16.7469 5.03052 16.7469 7.64819C16.7469 10.2657 14.6173 12.3954 11.9998 12.3954C9.38208 12.3954 7.25244 10.2657 7.25244 7.64819ZM8.83484 7.64819C8.83484 9.39331 10.2545 10.813 11.9998 10.813C13.7449 10.813 15.1646 9.39331 15.1646 7.64819C15.1646 5.90308 13.7449 4.48328 11.9998 4.48328C10.2546 4.48328 8.83484 5.90308 8.83484 7.64819Z"/>
</svg>
