<svg width="23" height="24" xmlns="http://www.w3.org/2000/svg"><path d="M18.531 15.563c-1.389 0-2.623.675-3.392 1.714l-6.622-3.384a4.207 4.207 0 00-.138-2.772l6.94-4.17a4.21 4.21 0 003.212 1.487 4.224 4.224 0 004.219-4.22A4.224 4.224 0 0018.531 0a4.224 4.224 0 00-3.933 5.744L7.64 9.924a4.21 4.21 0 00-3.171-1.44 4.224 4.224 0 00-4.219 4.22 4.216 4.216 0 007.649 2.453l6.603 3.374a4.223 4.223 0 004.03 5.47 4.224 4.224 0 004.218-4.22 4.223 4.223 0 00-4.219-4.218zm0-14.157a2.816 2.816 0 012.813 2.813A2.816 2.816 0 0118.53 7.03 2.816 2.816 0 0115.72 4.22a2.816 2.816 0 012.812-2.813zM4.47 15.516a2.816 2.816 0 01-2.813-2.813A2.816 2.816 0 014.47 9.891a2.816 2.816 0 012.812 2.812 2.816 2.816 0 01-2.812 2.813zm14.062 7.078a2.816 2.816 0 01-2.812-2.813 2.816 2.816 0 012.812-2.812 2.816 2.816 0 012.813 2.812 2.816 2.816 0 01-2.813 2.813z" /></svg>