<svg width="22" height="22" viewBox="0 0 22 22" fill="none" xmlns="http://www.w3.org/2000/svg">
<path d="M11 0C4.93452 0 0 4.93452 0 11C0 17.0655 4.93452 22 11 22C17.0655 22 22 17.0655 22 11C22 4.93452 17.0655 0 11 0ZM10.3555 5.39929C9.37491 5.35716 8.40425 5.21936 7.4774 4.99529C7.62544 4.64449 7.78607 4.30762 7.95929 3.98837C8.66995 2.67883 9.54242 1.75987 10.3555 1.42703V5.39929ZM10.3555 6.68936V10.3555H6.32967C6.3864 8.92458 6.63028 7.50409 7.03362 6.21201C8.10246 6.48123 9.22452 6.64421 10.3555 6.68936ZM10.3555 11.6445V15.3106C9.22452 15.3558 8.10246 15.5188 7.03362 15.788C6.63028 14.4959 6.3864 13.0754 6.32967 11.6445H10.3555ZM10.3555 16.6007V20.573C9.54242 20.2401 8.66995 19.3212 7.95929 18.0116C7.78607 17.6924 7.62544 17.3555 7.4774 17.0047C8.40425 16.7806 9.37474 16.6428 10.3555 16.6007ZM11.6445 16.6007C12.6251 16.6428 13.5957 16.7806 14.5226 17.0047C14.3746 17.3555 14.2139 17.6924 14.0407 18.0116C13.33 19.3212 12.4576 20.2401 11.6445 20.573V16.6007ZM11.6445 15.3106V11.6445H15.6703C15.6136 13.0754 15.3697 14.4959 14.9664 15.788C13.8975 15.5188 12.7755 15.3558 11.6445 15.3106ZM11.6445 10.3555V6.68936C12.7755 6.64421 13.8975 6.48123 14.9664 6.21201C15.3697 7.50409 15.6136 8.92458 15.6703 10.3555H11.6445ZM11.6445 5.39929V1.42703C12.4576 1.75987 13.33 2.67883 14.0407 3.98837C14.2139 4.30762 14.3746 4.64449 14.5226 4.99529C13.5957 5.21936 12.6251 5.35716 11.6445 5.39929ZM15.1737 3.37355C14.8509 2.7787 14.5003 2.25435 14.1307 1.80704C15.4194 2.24713 16.5868 2.95125 17.5685 3.85426C17.0086 4.15421 16.4052 4.4147 15.7704 4.6324C15.5903 4.19499 15.3912 3.7742 15.1737 3.37355V3.37355ZM6.82632 3.37355C6.6088 3.7742 6.40973 4.19499 6.22963 4.6324C5.59483 4.4147 4.99142 4.15404 4.43149 3.85426C5.41322 2.95125 6.5806 2.24713 7.86932 1.80704C7.49973 2.25435 7.14926 2.77853 6.82632 3.37355ZM5.79356 5.84392C5.35364 7.25131 5.09499 8.7856 5.03926 10.3555H1.31105C1.44902 8.26057 2.25351 6.34477 3.51505 4.81972C4.21513 5.22121 4.98186 5.56462 5.79356 5.84392ZM5.03926 11.6445C5.09499 13.2146 5.35364 14.7487 5.79356 16.1561C4.98186 16.4354 4.21513 16.7788 3.51505 17.1803C2.25351 15.6552 1.44902 13.7394 1.31105 11.6445H5.03926ZM6.22963 17.3676C6.40973 17.805 6.6088 18.2258 6.82632 18.6264C7.14926 19.2213 7.49973 19.7457 7.86932 20.193C6.5806 19.7529 5.41322 19.0488 4.43166 18.1457C4.99126 17.846 5.59483 17.5853 6.22963 17.3676ZM15.1737 18.6264C15.3912 18.2258 15.5903 17.805 15.7704 17.3676C16.4052 17.5853 17.0086 17.846 17.5685 18.1457C16.5868 19.0488 15.4194 19.7529 14.1307 20.193C14.5003 19.7457 14.8507 19.2215 15.1737 18.6264V18.6264ZM16.2064 16.1561C16.6464 14.7487 16.905 13.2144 16.9607 11.6445H20.6889C20.551 13.7394 19.7465 15.6552 18.485 17.1803C17.7849 16.7788 17.0181 16.4354 16.2064 16.1561V16.1561ZM16.9607 10.3555C16.905 8.78543 16.6464 7.25131 16.2064 5.84392C17.0181 5.56462 17.7849 5.22121 18.485 4.81972C19.7465 6.34477 20.551 8.26057 20.6889 10.3555H16.9607Z" fill="#1B365D"/>
</svg>
