<svg width="16" height="17" viewBox="0 0 16 17" fill="none" xmlns="http://www.w3.org/2000/svg">
<path d="M10.5 5.5C10.0625 2.71875 8.96875 0.75 7.75 0.75C6.5 0.75 5.4375 2.71875 4.96875 5.5H10.5ZM4.75 8.5C4.75 9.21875 4.78125 9.875 4.84375 10.5H10.625C10.6875 9.875 10.7188 9.21875 10.7188 8.5C10.7188 7.8125 10.6875 7.15625 10.625 6.5H4.84375C4.78125 7.15625 4.75 7.8125 4.75 8.5ZM14.875 5.5C14 3.40625 12.1875 1.75 9.9375 1.09375C10.7188 2.15625 11.2188 3.75 11.5 5.5H14.875ZM5.53125 1.09375C3.28125 1.75 1.46875 3.40625 0.59375 5.5H3.96875C4.25 3.75 4.75 2.15625 5.53125 1.09375ZM15.2188 6.5H11.625C11.6875 7.15625 11.75 7.84375 11.75 8.5C11.75 9.1875 11.6875 9.84375 11.625 10.5H15.2188C15.375 9.875 15.4688 9.21875 15.4688 8.5C15.4688 7.8125 15.375 7.15625 15.2188 6.5ZM3.75 8.5C3.75 7.84375 3.78125 7.15625 3.84375 6.5H0.25C0.09375 7.15625 0 7.8125 0 8.5C0 9.21875 0.09375 9.875 0.25 10.5H3.84375C3.78125 9.84375 3.75 9.1875 3.75 8.5ZM4.96875 11.5C5.4375 14.3125 6.5 16.25 7.75 16.25C8.96875 16.25 10.0625 14.3125 10.5 11.5H4.96875ZM9.9375 15.9375C12.1875 15.2812 14 13.625 14.875 11.5H11.5C11.25 13.2812 10.7188 14.875 9.9375 15.9375ZM0.59375 11.5C1.46875 13.625 3.28125 15.2812 5.53125 15.9375C4.75 14.875 4.25 13.2812 3.96875 11.5H0.59375Z" fill="#1B365D"/>
</svg>
