<svg width="28" height="28" fill="none" xmlns="http://www.w3.org/2000/svg"><g clip-path="url(#clip0)"><path fill-rule="evenodd" clip-rule="evenodd" d="M15.4 3.777A2.865 2.865 0 0012.543.921a2.865 2.865 0 00-2.857 2.856 2.865 2.865 0 002.857 2.857A2.865 2.865 0 0015.4 3.777zm-4.675 0a1.81 1.81 0 011.818-1.818 1.81 1.81 0 011.818 1.818 1.81 1.81 0 01-1.818 1.819 1.81 1.81 0 01-1.818-1.819zm1.445 4.675A1.55 1.55 0 0010.612 10V16.92c0 .991-.19 1.973-.558 2.893L7.7 25.7l2.122-.246 2.913-6.311.072.033-.746-.746.735-.736 2.092 2.094c.599.599.867 1.453.72 2.287l-.488 2.765 1.548-.179.971-4.08a1.559 1.559 0 00-.373-1.422L15.2 16.934a2.598 2.598 0 01-.694-1.767V11.29l-.527-.317.535-.89 3.772 2.264h3.232c.294 0 .52-.227.52-.52v-.259a.512.512 0 00-.52-.52h-3.266L14.73 8.847a2.6 2.6 0 00-1.377-.394H12.17zm3.376 3.463L18 13.387h3.52c.855 0 1.559-.704 1.559-1.558v-.26c0-.854-.704-1.558-1.559-1.558h-2.968l-3.27-2.046a3.638 3.638 0 00-1.928-.551H12.17c-.592 0-1.14.2-1.577.537a1.568 1.568 0 00-1.54-1.317h-1.82c-.854 0-1.558.704-1.558 1.559 0 .638.395 1.198.958 1.436l-.65 1.04c-.2.32-.306.692-.306 1.07v5.024c0 .855.704 1.559 1.558 1.559h2.19a6.75 6.75 0 01-.335 1.106l-2.564 6.407-6.823.79v1.046l29.088-3.37v-1.045l-6.752.782v-9.872H21v9.992l-3.233.375.884-3.713a2.597 2.597 0 00-.623-2.368l-2.066-2.224a1.559 1.559 0 01-.416-1.061v-3.252zM8.532 9.75h-.75l-.918 1.467a.984.984 0 00-.148.521v5.024c0 .293.226.52.52.52h2.327c.006-.12.01-.242.01-.363V8.193a.512.512 0 00-.52-.52H7.235a.512.512 0 00-.52.52c0 .28.23.52.516.52h1.3V9.75zm5.622 10.77l-.623-.622-2.498 5.414 3.012-.349.541-3.071a1.556 1.556 0 00-.432-1.372zm7.885-11.03V8.453H21V9.49h1.039z" fill="#5E7E29"/></g><defs><clipPath id="clip0"><path fill="#fff" transform="matrix(-1 0 0 1 27.52 .92)" d="M0 0h26.543v26.543H0z"/></clipPath></defs></svg>