<svg width="40" height="40" xmlns="http://www.w3.org/2000/svg">
    <path d="M12.88 9.44c1.16 0 2.12.96 2.12 2.12v3.2h-1.44v-3.2c0-.4-.32-.72-.72-.72h-2.48c-.4 0-.72.32-.72.72 0 .4.32.72.72.72h1.8v1.44H10.4c-1.2 0-2.16-.96-2.16-2.12 0-1.16.96-2.12 2.12-2.12l2.52-.04zM.04 32.32l39.92 4.64v1.44L.04 33.76v-1.44z" />
    <path d="M29.96 14.12h-4.08l-4.48-2.8c-1.28-.88-2.64-.88-2.64-.88h-1.64c-1.96 0-3.56 1.6-3.56 3.56v13.2c.04.72-.32 1.36-.92 1.76l-3.8 2.68.84 1.16 3.8-2.68c.92-.64 1.48-1.72 1.48-2.92V14c0-1.16.92-2.12 2.12-2.12h1.64c.64 0 1.32.2 1.88.56l4.84 3.04h4.48c.4 0 .72.32.72.72v.36c0 .4-.32.72-.72.72h-4.44l-5.16-3.12-.72 1.24 5.52 3.32h4.84c1.16 0 2.12-.96 2.12-2.12v-.36c0-1.16-.96-2.12-2.12-2.12z" />
    <path d="M16.6 30.52l-4.96 3.28.72 1.24 4.96-3.28c1-.6 1.16-2.48 1.16-2.48l-1.04-2c.56 1.04-.24 2.88-.84 3.24zM22.36 26.4c-.4-1.08-.56-2.44-.56-3.6v-.08-7.16l-1.48-.08v7.32c0 1.32.2 2.88.68 4.08l3.44 9 1.36-.48-3.44-9z" />
    <path d="M16.32 26.56L20.48 36l1.32-.6-4.16-9.4-1.32.56zM30.68 19.84v16.84h-1.44V19.84h1.44zM30.68 12v1.44h-1.44V12h1.44zM10.12 12.64l1.2.76-1.48 2.36c-.12.2-.2.48-.2.72v6.88c0 .4.32.72.72.72h3.92v1.44h-3.92c-1.16 0-2.12-.96-2.12-2.12v-6.84c0-.52.16-1.04.44-1.48l1.44-2.44zM17.68 1.64c2.16 0 3.92 1.76 3.92 3.92s-1.76 3.92-3.92 3.92-3.92-1.76-3.92-3.92 1.76-3.92 3.92-3.92zm0 1.4c-1.4 0-2.48 1.12-2.48 2.48 0 1.4 1.12 2.48 2.48 2.48 1.36 0 2.48-1.12 2.48-2.48 0-1.32-1.12-2.48-2.48-2.48z" />
</svg>