<svg width="24" height="25" xmlns="http://www.w3.org/2000/svg"><g clip-path="url(#clip0)"><path d="M12 .875c-6.632 0-12 5.367-12 12 0 6.632 5.367 12 12 12 6.632 0 12-5.367 12-12 0-6.632-5.367-12-12-12zM12 23A10.12 10.12 0 011.875 12.875 10.12 10.12 0 0112 2.75a10.12 10.12 0 0110.125 10.125A10.12 10.12 0 0112 23zm2.781-4.594c0 .518-.42.938-.937.938h-3.688a.937.937 0 110-1.875h.906v-5.5h-.906a.937.937 0 110-1.875H12c.518 0 .938.42.938.937v6.438h.906c.518 0 .937.42.937.937zM10.828 6.672a1.172 1.172 0 112.344 0 1.172 1.172 0 01-2.344 0z" /></g><defs><clipPath id="clip0"><path transform="translate(0 .875)" d="M0 0h24v24H0z"/></clipPath></defs></svg>