<svg width="24" height="25" fill="none" xmlns="http://www.w3.org/2000/svg">
    <g clip-path="url(#clip0)" fill="#1B365D">
        <path d="M23.482 18.404a.766.766 0 00-1.075.144c-2.024 2.65-5.159 4.371-8.6 4.725-3.203.329-6.282-.556-8.445-2.428-2.184-1.892-3.498-4.666-3.604-7.612-.108-3 1.041-5.933 3.153-8.045 3.565-3.565 9.81-3.67 13.367-.226 1.495 1.447 2.362 3.572 2.38 5.83.02 2.412-.89 4.66-2.56 6.33-1.293 1.293-3.182 2.033-5.186 2.033h-.024c-2.034-.006-3.971-.782-5.317-2.127-2.143-2.143-2.675-6.46-.01-9.225 2.08-2.159 5.778-2.316 7.915-.338.884.818 1.404 2.03 1.43 3.323.025 1.311-.463 2.566-1.338 3.442a3.722 3.722 0 01-2.58 1.103 3.524 3.524 0 01-2.58-1.045c-1.12-1.12-1.14-2.919-.049-4.012a2.417 2.417 0 011.605-.692 2.06 2.06 0 011.566.59c.195.194.312.437.338.702a.768.768 0 001.527-.153 2.666 2.666 0 00-.78-1.636 3.576 3.576 0 00-2.707-1.037 3.964 3.964 0 00-2.634 1.14c-1.69 1.691-1.669 4.465.048 6.182a5.06 5.06 0 003.69 1.495 5.251 5.251 0 003.641-1.552c1.17-1.17 1.82-2.831 1.787-4.558-.033-1.709-.734-3.32-1.921-4.42-2.726-2.522-7.428-2.335-10.063.4-3.282 3.405-2.618 8.728.03 11.376 1.63 1.63 3.962 2.569 6.398 2.576 2.417.028 4.714-.897 6.298-2.482 1.964-1.963 3.033-4.601 3.011-7.428-.022-2.667-1.06-5.189-2.847-6.92-4.207-4.073-11.314-3.961-15.52.243a12.395 12.395 0 00-3.602 9.186c.122 3.37 1.628 6.547 4.133 8.716 2.146 1.857 5.053 2.87 8.142 2.87.484 0 .973-.024 1.465-.074 3.86-.397 7.383-2.336 9.663-5.32a.767.767 0 00-.145-1.076z" />
        <path d="M11.645 11.464a1.05 1.05 0 00-.303.732c0 .275.112.544.303.736.196.195.462.307.737.307a1.042 1.042 0 00.735-1.775c-.387-.387-1.085-.387-1.472 0z" />
    </g>
</svg>