<svg xmlns="http://www.w3.org/2000/svg" viewBox="-543 745 512 512"><path d="M-295.2 905.6c11.9 0 23.8-4.5 32.9-13.6 8.8-8.8 13.6-20.5 13.6-32.9s-4.8-24.1-13.6-32.9c-18.1-18.1-47.7-18.1-65.8 0-8.8 8.8-13.6 20.5-13.6 32.9s4.8 24.1 13.6 32.9c9.1 9.1 21 13.6 32.9 13.6zm-11.7-58.1c3.2-3.2 7.5-4.8 11.7-4.8 4.2 0 8.5 1.6 11.7 4.8 3.1 3.1 4.8 7.3 4.8 11.7s-1.7 8.5-4.8 11.7c-6.5 6.4-17 6.4-23.4 0-3.1-3.1-4.8-7.3-4.8-11.7s1.7-8.6 4.8-11.7zM-240.4 924.8c2.9 2.9 6.8 4.4 10.6 4.4s7.7-1.5 10.6-4.4c17.6-17.5 27.2-40.8 27.2-65.6s-9.7-48.1-27.2-65.6c-5.9-5.9-15.4-5.8-21.2 0s-5.8 15.4 0 21.2c11.9 11.9 18.4 27.6 18.4 44.4 0 16.8-6.5 32.5-18.4 44.4-5.8 5.8-5.8 15.3 0 21.2zM-371.3 924.8c2.9 2.9 6.8 4.4 10.6 4.4s7.7-1.5 10.6-4.4c5.9-5.9 5.8-15.4 0-21.2-11.9-11.9-18.4-27.6-18.4-44.4 0-16.8 6.5-32.5 18.4-44.4 5.9-5.9 5.9-15.3 0-21.2-5.9-5.9-15.4-5.9-21.2 0-17.6 17.5-27.2 40.8-27.2 65.6 0 24.8 9.7 48.1 27.2 65.6z"/><path d="M-169.7 859.2c0 33.4-13.1 64.9-36.8 88.5-5.9 5.9-5.9 15.4 0 21.2 2.9 2.9 6.8 4.4 10.6 4.4s7.7-1.5 10.6-4.4c29.4-29.3 45.6-68.3 45.6-109.8s-16.2-80.5-45.6-109.8c-5.9-5.9-15.4-5.8-21.2 0-5.9 5.9-5.8 15.4 0 21.2 23.8 23.8 36.8 55.2 36.8 88.7zM-394.6 973.3c3.8 0 7.7-1.5 10.6-4.4 5.9-5.9 5.8-15.4 0-21.2-23.7-23.7-36.8-55.1-36.8-88.6 0-33.4 13.1-64.9 36.8-88.5 5.9-5.9 5.9-15.4 0-21.2-5.9-5.9-15.4-5.9-21.2 0-29.4 29.3-45.6 68.3-45.6 109.8s16.2 80.5 45.6 109.8c2.9 2.9 6.8 4.3 10.6 4.3z"/></svg>