<svg width="11" height="24" viewBox="0 0 11 24" xmlns="http://www.w3.org/2000/svg">
<path d="M10.8548 17.6156C10.7614 17.5129 10.6345 17.4548 10.5019 17.4542C10.369 17.4534 10.2412 17.5103 10.1469 17.6124L6.00195 22.1396L6.00195 0.545427C6.00191 0.244214 5.77805 0 5.50193 0C5.22582 0 5.00196 0.244214 5.00196 0.545427L5.00196 22.1396L0.85705 17.6124C0.660987 17.3985 0.34311 17.3985 0.147047 17.6124C-0.0490157 17.8263 -0.0490157 18.173 0.147047 18.3869L5.14698 23.8414C5.34201 24.0529 5.65696 24.0529 5.85195 23.8414L10.8519 18.3869C11.0479 18.1748 11.0492 17.8294 10.8548 17.6156Z" />
</svg>
