<svg width="22" height="22" xmlns="http://www.w3.org/2000/svg"><path fill-rule="evenodd" clip-rule="evenodd" d="M11.83 0C9.736 0 8.082 1.598 8.082 3.558c0 .735.685 2.316 1.58 3.781a31.93 31.93 0 002.166 3.094 31.928 31.928 0 002.175-3.094c.896-1.465 1.59-3.046 1.59-3.781 0-1.96-1.669-3.558-3.765-3.558zm0 2.2c.782 0 1.409.623 1.409 1.418a1.406 1.406 0 11-2.81 0 1.4 1.4 0 011.4-1.418zM0 5.24l6.6 3.916v12.426L0 17.666V5.241zM16.147 5.686L22 9.156v12.426l-6.6-3.916V7.14c.281-.49.538-.978.747-1.453z"/><path fill-rule="evenodd" clip-rule="evenodd" d="M9.016 8.375c.86 1.35 1.793 2.582 2.402 3.284a.55.55 0 00.83 0c.527-.607 1.297-1.612 2.052-2.745v8.752l-6.6 3.916V9.156l1.316-.781z" /></svg>