<svg width="22" height="22" viewBox="0 0 22 22" xmlns="http://www.w3.org/2000/svg">
<path fill-rule="evenodd" clip-rule="evenodd" d="M17.1496 5.32678H20.7442C21.1029 5.32678 21.3937 5.61766 21.3937 5.97635V19.2283C21.3937 20.7566 20.1503 22 18.6221 22H2.77165C1.24341 22 0 20.7566 0 19.2283V0.649567C0 0.290878 0.290878 0 0.649567 0H16.5C16.8587 0 17.1496 0.290878 17.1496 0.649567V5.32678ZM18.6221 20.7009C19.434 20.7009 20.0944 20.0402 20.0944 19.2283V6.62592H17.1496V19.2283C17.1496 20.0402 17.81 20.7009 18.6221 20.7009ZM1.29913 19.2283C1.29913 20.0402 1.95978 20.7009 2.77165 20.7009H16.2756C16.0067 20.2739 15.8504 19.7691 15.8504 19.2283V1.29913H1.29913V19.2283ZM3.68065 3.03153H13.4681C13.8268 3.03153 14.1177 3.32241 14.1177 3.6811V8.27171C14.1177 8.6304 13.8268 8.92128 13.4681 8.92128H3.68065C3.32197 8.92128 3.03109 8.6304 3.03109 8.27171V3.6811C3.03109 3.32241 3.32197 3.03153 3.68065 3.03153ZM4.33039 7.62214H12.8186V4.33084H4.33039V7.62214ZM13.4681 17.6691H3.68065C3.32197 17.6691 3.03109 17.96 3.03109 18.3188C3.03109 18.6775 3.32197 18.9684 3.68065 18.9684H13.4681C13.8268 18.9684 14.1177 18.6775 14.1177 18.3188C14.1177 17.96 13.8268 17.6691 13.4681 17.6691ZM3.68065 15.1577H13.4681C13.8268 15.1577 14.1177 15.4484 14.1177 15.8072C14.1177 16.1659 13.8268 16.4568 13.4681 16.4568H3.68065C3.32197 16.4568 3.03109 16.1659 3.03109 15.8072C3.03109 15.4484 3.32197 15.1577 3.68065 15.1577ZM13.4681 12.6458H3.68065C3.32197 12.6458 3.03109 12.9365 3.03109 13.2954C3.03109 13.654 3.32197 13.9449 3.68065 13.9449H13.4681C13.8268 13.9449 14.1177 13.654 14.1177 13.2954C14.1177 12.9365 13.8268 12.6458 13.4681 12.6458ZM3.68065 10.1344H13.4681C13.8268 10.1344 14.1177 10.4252 14.1177 10.7839C14.1177 11.1426 13.8268 11.4335 13.4681 11.4335H3.68065C3.32197 11.4335 3.03109 11.1426 3.03109 10.7839C3.03109 10.4252 3.32197 10.1344 3.68065 10.1344Z" />
</svg>
