<svg width="24" height="24" fill="none" xmlns="http://www.w3.org/2000/svg"><path d="M19.966 4.173C18.134 1.52 15.23 0 12 0 8.77 0 5.866 1.521 4.034 4.173 2.211 6.81 1.79 10.15 2.906 13.103c.298.805.773 1.588 1.406 2.322l7.05 8.28a.839.839 0 001.277 0l7.047-8.278c.637-.738 1.11-1.52 1.407-2.32 1.118-2.956.697-6.296-1.127-8.934zm-.445 8.347c-.228.617-.6 1.227-1.107 1.813l-.004.005L12 21.867l-6.414-7.534c-.505-.586-.878-1.196-1.109-1.819-.922-2.44-.572-5.202.938-7.387C6.929 2.935 9.329 1.678 12 1.678s5.071 1.257 6.586 3.45c1.51 2.184 1.86 4.946.935 7.392z" fill="#1B365D"/><path d="M12 4.979a4.705 4.705 0 00-4.7 4.699c0 2.591 2.109 4.7 4.7 4.7s4.7-2.109 4.7-4.7-2.109-4.7-4.7-4.7zm0 7.72a3.024 3.024 0 01-3.02-3.021A3.024 3.024 0 0112 6.657a3.024 3.024 0 013.021 3.02 3.025 3.025 0 01-3.02 3.022z" fill="#1B365D"/></svg>