<svg width="24" height="24" xmlns="http://www.w3.org/2000/svg">
    <g clip-path="url(#clip0)">
        <path d="M17.063 6.797h-2.11V5.203H19.5a.704.704 0 00.603-1.065l-.91-1.517.914-1.563A.704.704 0 0019.5 0h-5.25a.703.703 0 00-.703.703v6.094h-6.61a5.021 5.021 0 00-5.015 5.016V19.5c0 .388.315.703.703.703h7.922v3.094a.703.703 0 001.406 0v-3.094h1.594v3.094a.703.703 0 001.406 0v-3.094h6.422a.703.703 0 00.703-.703v-7.688a5.021 5.021 0 00-5.015-5.015zm-2.11-5.39h3.32l-.505.863a.703.703 0 00.004.717l.486.81h-3.305v-2.39zM3.328 11.811c0-1.99 1.62-3.609 3.61-3.609 1.99 0 3.609 1.62 3.609 3.61v6.984H3.328v-6.985zm17.344 6.985h-8.719v-6.985c0-1.415-.59-2.696-1.537-3.609h3.13v1.922a.703.703 0 001.407 0V8.203h2.11c1.99 0 3.609 1.62 3.609 3.61v6.984z" />
    </g>
</svg>