<svg width="22" height="22" fill="none" xmlns="http://www.w3.org/2000/svg"><path d="M5.74 20.278c.238-.21.47-.437.694-.677 1.505-1.617 2.378-3.594 2.488-5.609h6.857V12.27H8.84c-.091-.654-.24-1.274-.393-1.915-.29-1.21-.59-2.46-.59-4.241a4.396 4.396 0 014.392-4.392 4.396 4.396 0 014.391 4.392h1.722A6.12 6.12 0 0012.25 0a6.12 6.12 0 00-6.114 6.114c0 1.984.339 3.397.637 4.643.127.53.245 1.02.326 1.513H4.542v1.722h2.655c-.144 2.11-1.31 3.669-2.024 4.436-1.188 1.277-2.399 1.807-2.783 1.807V22h17.22v-1.722H5.74z" fill="#1B365D"/></svg>