<svg width="22" height="22" viewBox="0 0 22 22" xmlns="http://www.w3.org/2000/svg">
<path d="M20.448 5.54204H17.9837V1.51868C17.9837 1.15124 17.6859 0.853516 17.3186 0.853516H4.68143C4.31408 0.853516 4.01626 1.15124 4.01626 1.51868V5.54204H1.55205C0.696294 5.54204 0 6.23824 0 7.09409V15.6281C0 16.4839 0.696294 17.1802 1.55205 17.1802H4.01626V20.4797C4.01626 20.8471 4.31408 21.1448 4.68143 21.1448H17.3185C17.6858 21.1448 17.9837 20.8471 17.9837 20.4797V17.1802H20.4479C21.3036 17.1802 21.9999 16.4839 21.9999 15.6281V7.09409C22 6.23833 21.3037 5.54204 20.448 5.54204ZM5.34659 2.18384H16.6533V5.54204H5.34659V2.18384ZM16.6533 19.8145H5.34659V13.2157H16.6533V19.8145ZM20.6697 15.6281C20.6697 15.7483 20.5681 15.8499 20.448 15.8499H17.9837V12.5506C17.9837 12.1831 17.6859 11.8854 17.3186 11.8854H4.68143C4.31408 11.8854 4.01626 12.1831 4.01626 12.5506V15.8499H1.55205C1.43188 15.8499 1.33033 15.7483 1.33033 15.6281V7.09409C1.33033 6.97383 1.43188 6.87237 1.55205 6.87237H4.68143H17.3185H20.4479C20.568 6.87237 20.6696 6.97383 20.6696 7.09409V15.6281H20.6697Z"/>
<path d="M17.3185 10.3259C17.8411 10.3259 18.2647 9.90226 18.2647 9.37972C18.2647 8.85719 17.8411 8.43359 17.3185 8.43359C16.796 8.43359 16.3724 8.85719 16.3724 9.37972C16.3724 9.90226 16.796 10.3259 17.3185 10.3259Z" />
<path d="M14.0262 14.5293H7.97373C7.60638 14.5293 7.30856 14.827 7.30856 15.1945C7.30856 15.5619 7.60638 15.8596 7.97373 15.8596H14.0262C14.3935 15.8596 14.6914 15.5619 14.6914 15.1945C14.6914 14.8271 14.3936 14.5293 14.0262 14.5293Z" />
<path d="M14.0262 17.1719H7.97373C7.60638 17.1719 7.30856 17.4696 7.30856 17.837C7.30856 18.2045 7.60638 18.5022 7.97373 18.5022H14.0262C14.3935 18.5022 14.6914 18.2045 14.6914 17.837C14.6914 17.4696 14.3936 17.1719 14.0262 17.1719Z" />
</svg>
