<svg width="26" height="26" fill="none" xmlns="http://www.w3.org/2000/svg"><path d="M14.17 6.648V.762a.762.762 0 10-1.524 0V6.55h-3.3V4.875a.762.762 0 00-1.524 0v1.676H6.045v-.864a.762.762 0 00-1.524 0v.961a2.289 2.289 0 00-1.625 2.188v14.879A2.288 2.288 0 005.182 26h8.328a2.288 2.288 0 002.285-2.285V8.835c0-1.03-.686-1.903-1.625-2.187zm.101 17.067c0 .42-.341.762-.761.762H5.182a.763.763 0 01-.762-.762V8.835c0-.42.342-.76.762-.76h8.328c.42 0 .761.34.761.76v14.88z" fill="#1B365D"/><path d="M11.783 9.8H6.908a.762.762 0 00-.762.762v3.25c0 .421.342.762.762.762h4.875c.42 0 .762-.34.762-.761v-3.25a.762.762 0 00-.762-.762zm-.761 3.25H7.67v-1.726h3.351v1.727zM11.783 17.926H6.908a.762.762 0 100 1.523h4.875a.762.762 0 100-1.523zM10.97 21.176H7.72a.762.762 0 100 1.523h3.25a.762.762 0 100-1.523zM18.682 10.162a.762.762 0 00-1.077 1.078 2.487 2.487 0 010 3.519c-.482.481-.134 1.3.538 1.3a.76.76 0 00.539-.223 4.01 4.01 0 000-5.674z" fill="#1B365D"/><path d="M20.98 7.866a.762.762 0 10-1.077 1.077 5.745 5.745 0 010 8.115.762.762 0 101.078 1.077c2.83-2.831 2.83-7.438 0-10.27z" fill="#1B365D"/></svg>