<svg width="24" height="24" xmlns="http://www.w3.org/2000/svg"><path d="M22.526 16.945c-.04-.032-4.537-3.232-5.75-3.036-.587.103-.921.503-1.592 1.302a22.85 22.85 0 01-.57.657 10.275 10.275 0 01-6.483-6.483c.221-.201.53-.462.662-.573.796-.667 1.195-1.002 1.298-1.589.213-1.214-3.003-5.71-3.036-5.75A1.717 1.717 0 005.774.75C4.471.75.75 5.577.75 6.39c0 .048.068 4.851 5.991 10.876 6.018 5.916 10.821 5.984 10.868 5.984.813 0 5.641-3.721 5.641-5.025a1.72 1.72 0 00-.724-1.28zm-5 4.8c-.651-.055-4.686-.587-9.726-5.538-4.975-5.064-5.493-9.106-5.545-9.732a20.29 20.29 0 013.53-4.171c.03.03.07.075.12.134a26.543 26.543 0 012.681 4.547c-.24.242-.495.47-.762.683A7.524 7.524 0 006.69 8.735a.75.75 0 00-.128.563c.158.687.402 1.353.723 1.98a11.782 11.782 0 005.437 5.436 8.54 8.54 0 001.98.724.743.743 0 00.563-.128 7.56 7.56 0 001.07-1.138c.236-.281.55-.655.67-.761a26.362 26.362 0 014.557 2.684c.062.052.106.093.136.119a20.276 20.276 0 01-4.172 3.53v.002zM17.25 11.25h1.5a6.007 6.007 0 00-6-6v1.5a4.505 4.505 0 014.5 4.5z" fill="#1B365D"/><path d="M21 11.25h1.5a9.761 9.761 0 00-9.75-9.75V3A8.26 8.26 0 0121 11.25z" /></svg>