<svg width="40" height="40" xmlns="http://www.w3.org/2000/svg">
    <g clip-path="url(#clip0)">
        <path d="M19.011 7.153c-.722 0-1.298.585-1.298 1.299V21.41l11.857 6.13c.19.095.396.146.593.146.473 0 .93-.258 1.161-.705a1.309 1.309 0 00-.559-1.754l-10.447-5.4V8.452a1.31 1.31 0 00-1.307-1.299zM30.696 7.223l.688.473c.284.198.61.3.938.3.515 0 1.023-.24 1.332-.696a1.639 1.639 0 00-.395-2.278 26.605 26.605 0 00-.731-.5 1.632 1.632 0 00-2.27.43 1.641 1.641 0 00.438 2.27zM5.125 27.343a1.634 1.634 0 10-2.794 1.694c.309.516.653 1.014 1.022 1.496a1.628 1.628 0 102.588-1.978 16.6 16.6 0 01-.816-1.212zM7.326 6.337a1.631 1.631 0 00-2.305.103c-.404.439-.79.912-1.152 1.393a1.627 1.627 0 00.336 2.287c.292.215.636.327.98.327.499 0 .989-.223 1.307-.653.292-.396.61-.774.946-1.144.593-.67.55-1.702-.112-2.313zM3.362 22.562a13.726 13.726 0 01-.163-1.47 1.628 1.628 0 00-1.729-1.53A1.634 1.634 0 00-.06 21.29c.034.602.103 1.212.206 1.797.13.8.826 1.367 1.608 1.367a1.4 1.4 0 00.267-.026c.885-.129 1.487-.972 1.341-1.866zM1.849 17.102a1.643 1.643 0 001.935-1.264c.103-.49.223-.972.37-1.444a1.623 1.623 0 00-1.084-2.038 1.623 1.623 0 00-2.038 1.083 19.766 19.766 0 00-.447 1.737 1.622 1.622 0 001.264 1.926zM11.014 32.811c-.412-.215-.705-.37-.8-.421a19.71 19.71 0 01-.438-.292 1.631 1.631 0 00-2.27.43 1.632 1.632 0 00.43 2.27c.18.128.37.249.568.37l.086.05c.017.01.37.207.954.5a1.624 1.624 0 002.193-.714 1.65 1.65 0 00-.723-2.193zM24.66 4.024c.482.138.946.292 1.384.473a1.626 1.626 0 002.124-.903 1.635 1.635 0 00-.903-2.124 16.17 16.17 0 00-1.72-.584 1.635 1.635 0 00-2.011 1.135c-.25.86.258 1.762 1.126 2.003zM17.773 3.534c.06 0 .112 0 .172-.009a21.98 21.98 0 011.513-.103 1.633 1.633 0 10-.086-3.267c-.593.017-1.186.051-1.762.12a1.638 1.638 0 00-1.453 1.797 1.616 1.616 0 001.616 1.462zM11.582 1.823c-.55.232-1.092.499-1.616.774a1.632 1.632 0 00.782 3.07c.258 0 .525-.06.774-.198.438-.233.886-.448 1.35-.645a1.633 1.633 0 00.868-2.141 1.658 1.658 0 00-2.158-.86zM16.819 35.159c-.241-.06-.49-.137-.757-.215a1.638 1.638 0 00-2.047 1.075c-.266.86.215 1.78 1.075 2.046.31.095.61.18.894.258a1.65 1.65 0 001.995-1.17 1.62 1.62 0 00-1.16-1.994z" />
        <path d="M38.435 12.58l-.026-.104c-.043-.146-.094-.292-.137-.438-.078-.241-.164-.482-.258-.714-.009-.026-.026-.052-.035-.086-.232-.62-.498-1.221-.79-1.806a1.597 1.597 0 00-2.374-.576 1.61 1.61 0 00-.498 2.02c.343.689.644 1.42.902 2.168a16.73 16.73 0 01.86 5.752v.069c-.206 6.68-4.437 12.863-11.04 15.262l-.723-2.09c-.197-.584-.627-.627-.945-.103l-2.838 4.687c-.318.524-.112 1.135.464 1.35l5.125 1.943c.576.215.877-.078.68-.662l-.723-2.09a19.844 19.844 0 0011.11-9.888c.231-.464.447-.937.636-1.419 0 0 0-.008.008-.008.009-.018.017-.035.017-.06a19.682 19.682 0 00.585-13.208z" />
    </g>
</svg>