<svg width="28" height="24" fill="none" xmlns="http://www.w3.org/2000/svg"><path d="M25.25 8.39L27.5 6h-4.922A15.33 15.33 0 0014 3.375c-3.188 0-6.188.984-8.625 2.625H.5l2.203 2.39C1.343 9.657.5 11.39.5 13.36c0 3.75 3.047 6.75 6.75 6.75 1.781 0 3.375-.657 4.547-1.782L14 20.672l2.156-2.344a6.62 6.62 0 004.547 1.828c3.75 0 6.75-3.047 6.75-6.75v-.047c0-1.968-.844-3.703-2.203-4.968zm-18 9.563c-2.531 0-4.594-2.062-4.594-4.547A4.601 4.601 0 017.25 8.812c2.484 0 4.547 2.063 4.547 4.594 0 2.485-2.063 4.547-4.547 4.547zM14 13.266c0-3-2.203-5.579-5.11-6.704a13.165 13.165 0 015.063-.984c1.828 0 3.516.328 5.11.984C16.155 7.688 14 10.267 14 13.267zm6.703 4.687c-2.484 0-4.547-2.062-4.547-4.547 0-2.531 2.063-4.594 4.547-4.594a4.601 4.601 0 014.594 4.594c0 2.485-2.063 4.547-4.594 4.547zM7.25 11.016c-1.36 0-2.438 1.03-2.438 2.39 0 1.313 1.079 2.39 2.438 2.39a2.4 2.4 0 002.39-2.39 2.37 2.37 0 00-2.39-2.39zm13.453 0a2.37 2.37 0 00-2.39 2.39 2.4 2.4 0 002.39 2.39 2.37 2.37 0 002.39-2.39c0-1.36-1.03-2.39-2.39-2.39z" fill="#1B365D"/></svg>