<svg width="20" height="21" xmlns="http://www.w3.org/2000/svg">
    <g clip-path="url(#clip0)">
        <path d="M5.733 7.314A3.411 3.411 0 009.14 3.907 3.411 3.411 0 005.733.5a3.411 3.411 0 00-3.407 3.407 3.411 3.411 0 003.407 3.407zm0-5.451c1.127 0 2.044.917 2.044 2.044a2.047 2.047 0 01-2.044 2.044 2.047 2.047 0 01-2.044-2.044c0-1.127.917-2.044 2.044-2.044zM16.195 5.444l-5.766 5.765a5.62 5.62 0 00-10.318 3.09v.681h6.547l-.303.303L4.833 20.5l5.217-1.523 9.839-9.84-3.694-3.693zm1.767 3.694l-1.275 1.274-1.767-1.767 1.275-1.274 1.767 1.767zm-16.434 4.48a4.259 4.259 0 017.91-1.418l-1.417 1.418H1.528zm7.805 4.149l-2.495.728L7.566 16l6.39-6.39 1.767 1.766-6.39 6.39z" />
    </g>
</svg>