<svg width="24" height="24" xmlns="http://www.w3.org/2000/svg">
    <g clip-path="url(#clip0)">
        <path d="M8.25 5.578c0-1.472-1.2-2.672-2.672-2.672a2.677 2.677 0 00-2.672 2.672c0 1.472 1.2 2.672 2.672 2.672 1.472 0 2.672-1.2 2.672-2.672zm-3.938 0a1.266 1.266 0 112.533.002 1.266 1.266 0 01-2.532-.002zM2.344 22.595a.94.94 0 01-.938-.938.94.94 0 01.938-.938h6.469a2.345 2.345 0 000-4.687H7.218a.94.94 0 01-.938-.938V12.7H4.875v2.396a2.345 2.345 0 002.344 2.343h1.593a.94.94 0 01.938.938.94.94 0 01-.938.937H2.345a2.345 2.345 0 000 4.688h20.189l.126-1.407H2.344z" />
        <path d="M22.523 12.014c.338-.464.54-1.036.54-1.655a2.815 2.815 0 00-2.813-2.812 2.815 2.815 0 00-2.273 4.467 2.58 2.58 0 00-1.477 2.33v4.406h.998l.343 3.844h1.41l-.342-3.844h2.682l-.343 3.844h1.411l.343-3.844H24v-4.406a2.58 2.58 0 00-1.477-2.33zm-2.273-3.06a1.41 1.41 0 011.406 1.405 1.41 1.41 0 01-1.406 1.407 1.41 1.41 0 01-1.406-1.407 1.41 1.41 0 011.406-1.406zm2.344 8.39h-4.688v-3c0-.647.525-1.172 1.172-1.172h2.344c.647 0 1.172.525 1.172 1.172v3zM5.578 0A5.585 5.585 0 000 5.578c0 3.417 3.731 6.314 4.875 7.12h1.406c1.144-.806 4.875-3.707 4.875-7.12A5.585 5.585 0 005.578 0zm1.955 9.792a16.23 16.23 0 01-1.955 1.678c-.436-.314-1.186-.9-1.936-1.66C2.62 8.78 1.406 7.206 1.406 5.579a4.175 4.175 0 014.172-4.172A4.175 4.175 0 019.75 5.578c0 1.617-1.205 3.188-2.217 4.214z" />
    </g>
</svg>