<svg width="24" height="24" xmlns="http://www.w3.org/2000/svg"><g clip-path="url(#clip0)"><path d="M22.588 4.941V7.37c-.492.112-.819.329-1.097.514-.318.212-.528.353-1.02.353-.493 0-.703-.14-1.02-.353-.395-.262-.885-.589-1.804-.589-.92 0-1.41.327-1.804.59-.318.211-.528.352-1.02.352s-.702-.14-1.02-.353c-.394-.262-.884-.589-1.803-.589-.92 0-1.41.327-1.804.59-.318.211-.528.352-1.02.352s-.702-.14-1.02-.352c-.394-.263-.884-.59-1.803-.59-.92 0-1.41.327-1.804.59-.318.211-.528.352-1.02.352s-.702-.14-1.02-.352c-.278-.186-.605-.403-1.097-.515V4.941H0v19.06h24V4.94h-1.412zm-14.53 12h3.103L5.514 22.59H2.41l5.647-5.648zm-6.646 4.65v-4.65H6.06l-4.65 4.65zm11.746-4.65h3.104l-5.647 5.648H7.51l5.647-5.648zm5.1 0h3.104l-5.647 5.648h-3.104l5.647-5.648zM3.53 9.647c.92 0 1.41-.326 1.804-.589.318-.212.528-.352 1.02-.352s.702.14 1.02.352c.394.263.884.59 1.803.59.92 0 1.41-.327 1.803-.59.319-.212.529-.352 1.02-.352.493 0 .703.14 1.02.352.395.263.884.59 1.804.59s1.41-.327 1.803-.59c.318-.212.528-.352 1.02-.352.493 0 .703.14 1.021.352.394.263.884.59 1.803.59 1.183 0 1.654-.541 2.118-.785v6.667h-4.873l-.02-.021-.021.02h-5.06l-.02-.02-.021.02H7.514l-.02-.02-.022.02h-6.06V8.864c.464.244.935.784 2.117.784zm14.183 12.941l4.876-4.876v4.877h-4.876z"/><path d="M14.525 4.106l-.815-1.153-1.004.71V0h-1.412v3.663l-1.004-.71-.815 1.153L12 5.89l2.525-1.785z"/></g><defs><clipPath id="clip0"><path d="M0 0h24v24H0z"/></clipPath></defs></svg>