<svg width="26" height="27" fill="none" xmlns="http://www.w3.org/2000/svg"><path d="M8.658 19.328h-1.65v1.524h1.65v-1.524zM11.857 19.328h-1.65v1.524h1.65v-1.524zM15.057 19.328h-1.65v1.524h1.65v-1.524z" fill="#1B365D"/><path d="M25.294 7.096h-5.18l-.929 1.762H9.547v3.707H5.484v3.712H0v.762c0 4.382 3.56 7.942 7.937 7.942H26v-5.114h-1.554V12.57h-1.69l1.736-3.95H26V7.095h-.706zm-14.224 3.29h7.308l-.808 2.184h-6.5v-2.184zm13.407 11.005v2.061H7.937A6.42 6.42 0 011.57 17.8h15.356l4.012 3.585 3.54.006zm-1.554-7.298v5.774H21.52l-4.012-3.585H7.008v-2.189h15.915zm-1.894-1.523h-1.732l1.737-3.95h1.731l-1.736 3.95z" fill="#1B365D"/></svg>