<svg width="44" height="39" viewBox="0 0 44 39" fill="none" xmlns="http://www.w3.org/2000/svg"><path d="M43.397 17.63a21.24 21.24 0 00-6.739-2.213H8.046l-1.81-5.582A1.094 1.094 0 005.23 9.13H1.056C.453 9.13 0 9.583 0 10.187v12.571c0 .553.453 1.056 1.056 1.056h15.387L12.622 37.14c-.1.302 0 .654.15.905.202.252.503.402.855.402h4.174c.352 0 .654-.15.855-.452l10.158-14.231h9.956a8.07 8.07 0 004.928-2.414c.201-.2.302-.452.302-.754v-2.112a1.251 1.251 0 00-.603-.855zm-1.509 2.564a5.673 5.673 0 01-3.168 1.508H28.26a.988.988 0 00-.854.453l-10.158 14.23h-2.263l3.822-13.325c.1-.302 0-.654-.151-.905a1.074 1.074 0 00-.855-.402H2.061v-10.46h2.414l1.861 5.582c.15.402.553.704 1.006.704h29.316c1.81.302 3.57.855 5.23 1.71v.905z" fill="#1B365D"/><path d="M17.248 2.845h-2.263l3.62 12.571h-2.162l-3.82-13.325c-.1-.302 0-.654.15-.906a1.08 1.08 0 01.855-.402h4.174c.352 0 .654.151.855.453l10.158 14.23H26.25l-9-12.621z" fill="#86C8BC"/></svg>