<svg width="40" height="40" viewBox="0 0 40 40" fill="none" xmlns="http://www.w3.org/2000/svg"><path d="M34.827 36.152l-3.142 1.18c-.492.07-1.04.117-1.696.117-2.203 0-3.243-.516-4.438-1.11-1.298-.64-2.767-1.383-5.557-1.383-2.798 0-4.267.735-5.556 1.383-1.196.594-2.235 1.11-4.44 1.11a10.5 10.5 0 01-1.687-.125l-3.126-1.172c-1.204-.594-2.65-1.196-5.181-1.196v2.493c2.203 0 3.243.516 4.439 1.11 1.297.64 2.766 1.383 5.556 1.383s4.267-.735 5.556-1.383c1.196-.594 2.235-1.11 4.44-1.11 2.203 0 3.242.516 4.438 1.11 1.297.64 2.767 1.383 5.564 1.383 2.798 0 4.267-.735 5.565-1.383 1.195-.594 2.235-1.11 4.438-1.11v-2.493c-2.508 0-3.954.594-5.173 1.196zM8.74 7.487h22.5v9.573l2.508 1.336V6.244c0-.688-.562-1.25-1.25-1.25h-5.001V1.25c0-.687-.563-1.25-1.25-1.25H13.75c-.688 0-1.25.563-1.25 1.25v3.744H7.498c-.688 0-1.25.562-1.25 1.25V18.39l2.508-1.337c-.015.008-.015-9.565-.015-9.565zM14.993 2.5h9.995v2.493h-9.995V2.5z" fill="#86C8BC"/><path d="M39.914 22.922l-5.088 13.222-3.141 1.18 5.494-14.277-15.935-8.48v12.887H18.75V14.56L2.816 23.039 8.31 37.317l-3.126-1.173L.09 22.922a1.232 1.232 0 01.57-1.556l5.58-2.97 2.509-1.336 8.612-4.58 1.407-.75.656-.351c.36-.195.805-.195 1.172 0l.657.352 1.406.75 8.589 4.58 2.508 1.336 5.588 2.97c.547.304.79.976.57 1.555z" fill="#1B365D"/></svg>