<svg width="30" height="30" viewBox="0 0 30 30" fill="none" xmlns="http://www.w3.org/2000/svg"><g clip-path="url(#clip0)"><path d="M30 1.002v9a1.001 1.001 0 11-2.004 0V3.416l-14.29 14.291a1.003 1.003 0 01-1.419 0 .994.994 0 010-1.412L26.584 1.998h-6.586a1.002 1.002 0 110-2.004h9A1.006 1.006 0 0130 1.002z" fill="#86C8BC"/><path d="M25.998 27V15a1.002 1.002 0 10-2.004 0v12c0 .55-.451 1.002-1.002 1.002H3c-.55 0-1.002-.451-1.002-1.002V7.002C1.998 6.452 2.449 6 3 6h12a1.002 1.002 0 100-2.004H3c-1.652 0-3 1.348-3 3v19.998c0 1.652 1.348 3 3 3h19.998c1.658.006 3-1.342 3-2.994z" fill="#1B365D"/></g><defs><clipPath id="clip0"><path fill="#fff" d="M0 0h30v30H0z"/></clipPath></defs></svg>