<svg width="40" height="40" viewBox="0 0 40 40" fill="none" xmlns="http://www.w3.org/2000/svg">
<path d="M7.75969 27.36C10.013 27.36 11.8397 25.5333 11.8397 23.28C11.8397 21.0266 10.013 19.2 7.75969 19.2C5.50637 19.2 3.67969 21.0266 3.67969 23.28C3.67969 25.5333 5.50637 27.36 7.75969 27.36Z" fill="#1B365D"/>
<path d="M36.9596 27.24V32.2799H18.5596V22.2H30.1196C33.9196 22.2 36.9596 23 36.9596 27.24Z" fill="#86C8BC"/>
<path d="M5.07969 32.2798C4.27969 32.2798 3.67969 31.6398 3.67969 30.8798C3.67969 30.0798 4.31969 29.4798 5.07969 29.4798H13.6397V22.6798C13.6397 21.8798 14.2797 21.2798 15.0397 21.2798C15.8397 21.2798 16.4397 21.9198 16.4397 22.6798V30.8798C16.4397 31.2398 16.2797 31.5998 16.0397 31.8798C15.7597 32.1598 15.3997 32.2798 15.0397 32.2798H5.07969Z" fill="#1B365D"/>
<path d="M3.59996 37.1599C2.51996 37.1599 1.95996 36.3199 1.95996 35.7999C1.95996 35.0399 2.67996 34.4399 3.59996 34.4399H36.4C37.28 34.4399 38.04 35.0399 38.04 35.7999C38.04 36.3199 37.48 37.1599 36.4 37.1599H3.59996Z" fill="#1B365D"/>
<path d="M38.7197 12.8801C38.5597 12.8801 38.3997 12.8401 38.2797 12.8001L19.9997 5.76012L1.75972 12.7601C1.59972 12.8001 1.43972 12.8401 1.31972 12.8401C0.799717 12.8401 0.319717 12.5201 0.119717 12.0001C-0.000282764 11.6801 -0.000282764 11.3201 0.159717 11.0001C0.279717 10.6801 0.559717 10.4401 0.879717 10.3201L19.5597 3.20012C19.7197 3.16012 19.8797 3.12012 19.9997 3.12012C20.1597 3.12012 20.3197 3.16012 20.4397 3.20012L39.1597 10.4001C39.4797 10.5201 39.7197 10.7601 39.8797 11.0801C39.9997 11.4001 40.0397 11.7201 39.9197 12.0401C39.7197 12.5201 39.2397 12.8801 38.7197 12.8801Z" fill="#1B365D"/>
</svg>
