<svg width="44" height="39" viewBox="0 0 44 39" fill="none" xmlns="http://www.w3.org/2000/svg">
<path d="M43.3966 17.6291C41.2846 16.5229 39.0217 15.7686 36.6583 15.4166H8.04571L6.23543 9.83486C6.08457 9.43257 5.68228 9.13086 5.22971 9.13086H1.056C0.452567 9.13086 0 9.58343 0 10.1869V22.7583C0 23.3114 0.452567 23.8143 1.056 23.8143H16.4434L12.6217 37.14C12.5211 37.4417 12.6217 37.7937 12.7726 38.0451C12.9737 38.2966 13.2754 38.4474 13.6274 38.4474H17.8011C18.1531 38.4474 18.4549 38.2966 18.656 37.9949L28.8137 23.764H38.7703C40.6309 23.5629 42.3909 22.708 43.6983 21.3503C43.8994 21.1491 44 20.8977 44 20.596V18.484C43.9497 18.1823 43.7486 17.8303 43.3966 17.6291ZM41.888 20.1937C41.0331 20.9983 39.9269 21.5514 38.72 21.7023H28.2606C27.9086 21.7023 27.6069 21.8531 27.4057 22.1549L17.248 36.3857H14.9851L18.8069 23.06C18.9074 22.7583 18.8069 22.4063 18.656 22.1549C18.4549 21.9034 18.1531 21.7526 17.8011 21.7526H2.06171V11.2931H4.47543L6.336 16.8749C6.48685 17.2771 6.88914 17.5789 7.34171 17.5789H36.6583C38.4686 17.8806 40.2286 18.4337 41.888 19.2886V20.1937Z" fill="#1B365D"/>
<path d="M17.2481 2.84492H14.9852L18.6058 15.4163H16.4435L12.6218 2.09063C12.5212 1.78892 12.6218 1.43691 12.7726 1.18548C12.9738 0.934054 13.2755 0.783203 13.6275 0.783203H17.8012C18.1532 0.783203 18.4549 0.934057 18.6561 1.23577L28.8138 15.4666H26.2492L17.2481 2.84492Z" fill="#86C8BC"/>
</svg>
