<svg width="40" height="40" viewBox="0 0 40 40" fill="none" xmlns="http://www.w3.org/2000/svg">
<path d="M34.8269 36.1517L31.6853 37.3318C31.1929 37.4021 30.6459 37.449 29.9894 37.449C27.7856 37.449 26.7463 36.9332 25.5506 36.3393C24.2533 35.6985 22.7841 34.9561 19.9942 34.9561C17.1964 34.9561 15.7272 35.6907 14.4378 36.3393C13.2421 36.9332 12.2027 37.449 9.99892 37.449C9.34247 37.449 8.79543 37.4021 8.3109 37.324L5.18494 36.1517C3.98145 35.5578 2.53569 34.9561 0.00366211 34.9561V37.449C2.20746 37.449 3.24685 37.9648 4.44253 38.5587C5.7398 39.1995 7.209 39.942 9.99892 39.942C12.7888 39.942 14.2659 39.2074 15.5553 38.5587C16.751 37.9648 17.7904 37.449 19.9942 37.449C22.198 37.449 23.2374 37.9648 24.433 38.5587C25.7303 39.1995 27.1995 39.942 29.9973 39.942C32.795 39.942 34.2642 39.2074 35.5615 38.5587C36.7571 37.9648 37.7965 37.449 40.0003 37.449V34.9561C37.4917 34.9561 36.046 35.55 34.8269 36.1517ZM8.74072 7.48668H31.2398V17.0599L33.7484 18.3963V6.24411C33.7484 5.55639 33.1857 4.99372 32.498 4.99372H27.4965V1.25038C27.4965 0.562673 26.9338 0 26.2461 0H13.7501C13.0624 0 12.4997 0.562673 12.4997 1.25038V4.99372H7.49815C6.81044 4.99372 6.24777 5.55639 6.24777 6.24411V18.3885L8.75635 17.0521C8.74072 17.0599 8.74072 7.48668 8.74072 7.48668ZM14.9926 2.50077H24.9879V4.99372H14.9926V2.50077Z" fill="#86C8BC"/>
<path d="M39.9137 22.9216L34.8262 36.1444L31.6846 37.3244L37.1785 23.0466L21.2439 14.5674V27.4542H18.7509V14.5596L2.81635 23.0388L8.31023 37.3166L5.18427 36.1444L0.0889534 22.9216C-0.145494 22.3276 0.0967683 21.6555 0.659441 21.3664L6.23928 18.3967L8.74786 17.0604L17.3599 12.4809L18.7666 11.7306L19.423 11.379C19.7825 11.1836 20.228 11.1836 20.5953 11.379L21.2517 11.7306L22.6584 12.4809L31.247 17.0604L33.7555 18.3967L39.3432 21.3664C39.8902 21.6712 40.1325 22.3433 39.9137 22.9216Z" fill="#1B365D"/>
</svg>
