<svg width="28" height="28" viewBox="0 0 28 28" fill="none" xmlns="http://www.w3.org/2000/svg">
<path d="M14.7167 8.45688H12.0086L9.02047 6.58438C8.47359 6.24313 7.84359 6.06375 7.20047 6.06375H6.11109C5.60797 6.06375 5.12672 6.2125 4.71109 6.50125C4.54484 5.83188 3.93672 5.34625 3.24109 5.34625H1.56547C0.725468 5.34625 0.0429688 6.02875 0.0429688 6.86875C0.0429688 7.44625 0.371093 7.97125 0.887343 8.22938L0.340468 9.10438C0.147968 9.415 0.0429688 9.76938 0.0429688 10.1369V14.7613C0.0429688 15.6013 0.725468 16.2838 1.56547 16.2838H3.46859C3.46422 16.3144 3.45547 16.3406 3.45109 16.3713C3.38547 16.6556 3.37234 16.7256 3.41609 16.7781C3.42047 16.7825 3.42047 16.7869 3.42484 16.7869L0.729844 25.8563L0.874219 25.9438L2.19547 24.605L4.24297 17.5963C4.58859 16.7388 4.76359 15.8331 4.76359 14.9056V8.54C4.76359 7.79625 5.36734 7.1925 6.11109 7.1925H7.20047C7.63797 7.1925 8.05797 7.315 8.42109 7.5425L11.6848 9.58563H14.7167C14.9355 9.58563 15.1061 9.75625 15.1061 9.97938V10.22C15.1061 10.4388 14.9355 10.6094 14.7167 10.6094H11.7636L8.23734 8.49188L7.65547 9.45875L8.17172 9.77375V13.2913C8.17172 13.9213 8.40797 14.5163 8.83234 14.9756L10.2323 16.485L11.0155 15.6669L9.66359 14.21C9.43172 13.9606 9.30484 13.6369 9.30484 13.2913V10.4519L11.453 11.7425H14.7167C15.5567 11.7425 16.2392 11.06 16.2392 10.22V9.97938C16.2392 9.13938 15.5567 8.45688 14.7167 8.45688ZM3.63047 14.9056C3.63047 14.9844 3.62609 15.0631 3.62172 15.1463V15.1506H1.56984C1.34672 15.1506 1.17609 14.98 1.17609 14.7569V10.1369C1.17609 9.97938 1.21984 9.83063 1.29859 9.70375L2.11672 8.39125H2.84734V7.2625H1.56109C1.35109 7.2625 1.17609 7.08313 1.17609 6.86875C1.17609 6.65 1.34672 6.47938 1.56984 6.47938H3.24109C3.46422 6.47938 3.63047 6.64563 3.63047 6.86875V14.9056Z" fill="#1B365D"/>
<path d="M8.66959 17.4824L6.68335 15.4918L5.88273 16.2924L6.5346 16.9443L3.67773 23.1306L3.82211 23.2268L5.87835 21.0656L7.38335 17.7974L7.86897 18.2831C7.95647 18.3706 8.03084 18.4668 8.09209 18.5762L8.14897 18.6812L8.95397 17.8368L8.91459 17.7799C8.84459 17.6706 8.76147 17.5699 8.66959 17.4824Z" fill="#1B365D"/>
<path d="M6.4532 5.52121C7.94945 5.52121 9.17008 4.30059 9.17008 2.80434C9.17008 1.30809 7.94945 0.0874634 6.4532 0.0874634C4.95695 0.0874634 3.73633 1.30809 3.73633 2.80434C3.73633 4.30496 4.95695 5.52121 6.4532 5.52121ZM6.4532 1.22059C7.3282 1.22059 8.04133 1.93371 8.04133 2.80871C8.04133 3.68371 7.3282 4.39684 6.4532 4.39684C5.5782 4.39684 4.86508 3.68371 4.86508 2.80871C4.86508 1.92934 5.5782 1.22059 6.4532 1.22059Z" fill="#1B365D"/>
<path d="M0.541016 28.0174H2.48789L27.9986 2.18744V0.314941L0.541016 28.0174Z" fill="#86C8BC"/>
<path d="M20.2073 26.985C20.0541 26.985 19.9054 26.9325 19.7829 26.845C19.6341 26.7312 19.5379 26.5694 19.5116 26.39C19.4548 26.005 19.7173 25.6462 20.1023 25.585C20.2291 25.5675 20.356 25.5412 20.4829 25.515C20.531 25.5062 20.5835 25.4975 20.6316 25.4975C20.9598 25.4975 21.2529 25.7337 21.3185 26.0531C21.3579 26.2369 21.3229 26.425 21.2223 26.5825C21.1216 26.74 20.9641 26.8494 20.776 26.8887C20.6229 26.9237 20.4654 26.95 20.3079 26.9762C20.2773 26.985 20.2423 26.985 20.2073 26.985Z" fill="#1B365D"/>
<path d="M25.9206 17.9944C25.7675 17.9944 25.6187 17.9419 25.4962 17.85C25.3737 17.7581 25.2862 17.6313 25.2425 17.4869C25.2075 17.3644 25.1637 17.2375 25.12 17.1194C25.0544 16.9444 25.0631 16.7519 25.1419 16.5813C25.2206 16.4106 25.365 16.2794 25.54 16.2181C25.6187 16.1919 25.6975 16.1744 25.7806 16.1744C26.0781 16.1744 26.3406 16.3625 26.4456 16.6381C26.4981 16.7869 26.5506 16.94 26.5943 17.0888C26.7037 17.4606 26.4893 17.8544 26.1175 17.9637C26.0562 17.9856 25.9906 17.9944 25.9206 17.9944Z" fill="#1B365D"/>
<path d="M22.4877 26.2281C22.3345 26.2281 22.1858 26.1756 22.0633 26.0881C21.9802 26.0269 21.9145 25.9481 21.8664 25.8562C21.6827 25.515 21.8139 25.0862 22.1552 24.9025C22.2689 24.8412 22.3827 24.7756 22.492 24.71C22.6014 24.64 22.7327 24.605 22.8595 24.605C23.1045 24.605 23.332 24.7319 23.4589 24.9419C23.5595 25.1037 23.5902 25.2919 23.5464 25.4756C23.5027 25.6594 23.3889 25.8125 23.2314 25.9131C23.1002 25.9962 22.9602 26.075 22.8202 26.1494C22.7152 26.1975 22.6014 26.2281 22.4877 26.2281Z" fill="#1B365D"/>
<path d="M26.2055 20.3787C26.1923 20.3787 26.1792 20.3787 26.1661 20.3787C26.0261 20.3699 25.8905 20.3218 25.7811 20.2387C25.593 20.0987 25.488 19.8712 25.5011 19.6349C25.5098 19.5081 25.5099 19.3768 25.5099 19.2456C25.5055 18.8562 25.8205 18.5368 26.2098 18.5368H26.2142C26.5992 18.5368 26.9186 18.8518 26.9186 19.2368C26.9186 19.3943 26.9142 19.5518 26.9055 19.7093C26.888 20.0855 26.5773 20.3787 26.2055 20.3787Z" fill="#1B365D"/>
<path d="M24.3818 24.7493C24.2287 24.7493 24.08 24.7012 23.9575 24.6093C23.94 24.5962 23.9225 24.583 23.9093 24.5699C23.6206 24.3074 23.5987 23.8612 23.8612 23.5724C23.9487 23.4762 24.0318 23.3755 24.115 23.2793C24.2506 23.113 24.4518 23.0168 24.6662 23.0168C24.8237 23.0168 24.9812 23.0737 25.1081 23.1699C25.41 23.4149 25.4625 23.8568 25.2175 24.163C25.1168 24.2855 25.0118 24.408 24.9112 24.5262C24.7712 24.6662 24.5787 24.7493 24.3818 24.7493Z" fill="#1B365D"/>
<path d="M25.6665 22.7194C25.5746 22.7194 25.4828 22.7019 25.3953 22.6625C25.3428 22.6406 25.2903 22.61 25.2421 22.575C24.984 22.3825 24.8921 22.0369 25.0146 21.7394C25.0627 21.6212 25.1109 21.4987 25.1546 21.3762C25.2553 21.0919 25.5221 20.9037 25.8196 20.9037C25.8984 20.9037 25.9771 20.9169 26.0515 20.9431C26.419 21.07 26.6115 21.4725 26.4847 21.84C26.4322 21.9887 26.3753 22.1375 26.314 22.2819C26.209 22.5487 25.9509 22.7194 25.6665 22.7194Z" fill="#1B365D"/>
<path d="M17.6748 26.915C17.6266 26.915 17.5785 26.9106 17.5304 26.8975C16.4148 26.6613 15.3866 26.1888 14.4723 25.5019C14.1266 25.2394 13.7985 24.9506 13.5054 24.64L13.4791 24.6138V24.6094C12.5079 23.5769 11.8385 22.2994 11.5498 20.9125L11.541 20.8688L12.7966 19.5825L12.8098 19.775C12.9498 21.6038 13.8641 23.2794 15.321 24.3731C15.5091 24.5131 15.7016 24.6444 15.8985 24.7581L15.9641 24.7625V24.7975C16.0779 24.8631 16.1741 24.9113 16.2616 24.9594L16.2791 24.9681C16.7648 25.2175 17.2854 25.4013 17.8235 25.5106C18.0073 25.55 18.1648 25.6594 18.2698 25.8169C18.3748 25.9744 18.4098 26.1625 18.3704 26.3463C18.296 26.6788 18.0029 26.915 17.6748 26.915Z" fill="#1B365D"/>
<path d="M22.5251 15.1331C22.3458 15.1331 22.2758 15.0499 22.2495 14.9974C22.2233 14.9449 22.197 14.8312 22.3151 14.6737L22.7658 14.0612C21.7989 13.3874 20.6658 13.0024 19.4933 12.9412L19.3008 12.9324L20.5564 11.6462L20.6045 11.6549C21.6851 11.8606 22.6958 12.2893 23.6101 12.9281L24.0651 12.3156C24.1614 12.1843 24.2576 12.1581 24.3233 12.1581C24.4458 12.1581 24.542 12.2543 24.5814 12.4206L25.0801 14.4681C25.1151 14.6037 25.0889 14.7349 25.0101 14.8399C24.9314 14.9449 24.8089 15.0106 24.6689 15.0193L22.5645 15.1374C22.547 15.1331 22.5339 15.1331 22.5251 15.1331Z" fill="#1B365D"/>
<path d="M23.0515 22.2819C22.9596 22.2819 22.8634 22.26 22.7802 22.2163L18.1777 19.8363V14.805C18.1777 14.4813 18.4402 14.2188 18.764 14.2188C19.0877 14.2188 19.3502 14.4813 19.3502 14.805V19.1231L23.3184 21.175C23.6071 21.3238 23.7209 21.6781 23.5721 21.9669C23.4715 22.1638 23.2746 22.2819 23.0515 22.2819Z" fill="#1B365D"/>
</svg>
