<svg width="30" height="30" viewBox="0 0 30 30" fill="none" xmlns="http://www.w3.org/2000/svg">
<g clip-path="url(#clip0)">
<path d="M30 1.00195V10.002C30 10.5527 29.5547 11.0039 28.9981 11.0039C28.4414 11.0039 27.9961 10.5586 27.9961 10.002V3.41602L13.7051 17.707C13.5117 17.9004 13.2539 18 12.9961 18C12.7383 18 12.4863 17.9004 12.2871 17.707C11.8945 17.3145 11.8945 16.6816 12.2871 16.2949L26.584 1.99805H19.998C19.4473 1.99805 18.9961 1.55273 18.9961 0.996093C18.9961 0.445312 19.4414 -0.00585938 19.998 -0.00585938H28.9981C29.5547 4.65661e-10 30 0.445312 30 1.00195Z" fill="#86C8BC"/>
<path d="M25.998 27V15C25.998 14.4492 25.5527 13.998 24.9961 13.998C24.4395 13.998 23.9941 14.4434 23.9941 15V27C23.9941 27.5508 23.543 28.002 22.9922 28.002H3C2.44922 28.002 1.99805 27.5508 1.99805 27V7.00195C1.99805 6.45117 2.44922 6 3 6H15C15.5508 6 16.002 5.55469 16.002 4.99805C16.002 4.44727 15.5566 3.99609 15 3.99609H3C1.34766 3.99609 0 5.34375 0 6.99609V26.9941C0 28.6465 1.34766 29.9941 3 29.9941H22.998C24.6562 30 25.998 28.6523 25.998 27Z" fill="#1B365D"/>
</g>
<defs>
<clipPath id="clip0">
<rect width="30" height="30" fill="white"/>
</clipPath>
</defs>
</svg>
