<svg width="40" height="40" viewBox="0 0 40 40" fill="none" xmlns="http://www.w3.org/2000/svg">
<path fill-rule="evenodd" clip-rule="evenodd" d="M12.1722 8.61084C13.4599 8.61084 14.5205 9.67165 14.5205 10.9594V14.4818H12.955V10.9594C12.955 10.5174 12.6138 10.1764 12.1722 10.1764H9.43252C8.99089 10.1764 8.64976 10.518 8.64976 10.9594C8.64976 11.3818 8.99558 11.7443 9.42642 11.742H11.3863V13.3077H9.43252C8.13172 13.3077 7.0825 12.2381 7.08109 10.9594C7.08109 9.67165 8.14174 8.61084 9.42939 8.61084H12.1722Z" fill="#86C8BC"/>
<path fill-rule="evenodd" clip-rule="evenodd" d="M41.917 33.6587L-1.91796 38.7374V40.3124L41.917 35.2335V33.6587Z" fill="#86C8BC"/>
<path fill-rule="evenodd" clip-rule="evenodd" d="M18.6512 9.78516C19.678 9.78516 20.6851 10.0726 21.5561 10.6167L26.485 13.6991H30.9583C32.246 13.6991 33.3066 14.7597 33.3066 16.0474V16.4385C33.3066 17.7262 32.246 18.787 30.9583 18.787H25.6534L19.596 15.1512L20.4032 13.8088L26.0875 17.2215H30.9583C31.4 17.2215 31.7411 16.8799 31.7411 16.4385V16.0474C31.7411 15.606 31.4 15.2648 30.9583 15.2648H26.0355L20.7274 11.9439C20.1053 11.5551 19.3848 11.3507 18.6512 11.3507H16.8685C15.5624 11.3507 14.5202 12.3928 14.5202 13.6991V24.111C14.5202 25.6048 14.2342 27.0843 13.6794 28.4713L9.76868 38.2563L8.3132 37.6723L12.227 27.8904C12.7078 26.6883 12.9547 25.4056 12.9547 24.111V13.6991C12.9547 11.5467 14.7162 9.78516 16.8685 9.78516H18.6512Z" fill="#1B365D"/>
<path fill-rule="evenodd" clip-rule="evenodd" d="M17.7217 27.459L19.1436 28.1163L14.447 38.2928L13.0251 37.6353L17.7217 27.459Z" fill="#1B365D"/>
<path fill-rule="evenodd" clip-rule="evenodd" d="M17.8136 25.2756L20.9662 28.4313C21.8687 29.3338 22.2735 30.6205 22.0517 31.8775L21.1618 36.9259L19.6207 36.6536L20.5106 31.6052C20.6437 30.8497 20.401 30.0806 19.8593 29.5382L16.7068 26.3856L17.8136 25.2756Z" fill="#1B365D"/>
<path fill-rule="evenodd" clip-rule="evenodd" d="M21.9565 15.2646V21.4689C21.9565 22.0617 22.1799 22.6334 22.5834 23.0678L25.6961 26.4194C26.5852 27.3769 26.9374 28.7166 26.6348 29.9879L25.0663 36.5804L23.5435 36.2165L25.1122 29.6269C25.2941 28.8627 25.084 28.0589 24.5495 27.4833L21.4368 24.1319C20.7647 23.4081 20.391 22.4562 20.391 21.4687V15.2644L21.9565 15.2646Z" fill="#1B365D"/>
<path fill-rule="evenodd" clip-rule="evenodd" d="M31.7412 19.9612V35.6171H30.1757V19.9612H31.7412Z" fill="#86C8BC"/>
<path fill-rule="evenodd" clip-rule="evenodd" d="M31.7412 11.3508V12.9164H30.1757V11.3508H31.7412Z" fill="#86C8BC"/>
<path fill-rule="evenodd" clip-rule="evenodd" d="M9.16097 12.1086L10.4881 12.9373L8.87354 15.5182C8.72637 15.7531 8.65029 16.0271 8.65029 16.304V23.8752C8.65029 24.3167 8.99157 24.658 9.43305 24.658H13.7383V26.2236H9.43306C8.1454 26.2236 7.08475 25.163 7.08475 23.8752V16.304C7.08475 15.7337 7.24428 15.1732 7.54659 14.6896L9.16097 12.1086Z" fill="#86C8BC"/>
<path d="M17.4311 0C19.7996 0 21.7363 1.93681 21.7363 4.30538C21.7363 6.67382 19.7996 8.61075 17.4311 8.61075C15.0626 8.61075 13.1259 6.67382 13.1259 4.30538C13.1259 1.93681 15.0626 0 17.4311 0ZM17.4311 1.56556C15.9088 1.56556 14.6914 2.78288 14.6914 4.30538C14.6914 5.82776 15.9088 7.04519 17.4311 7.04519C18.9534 7.04519 20.1708 5.82776 20.1708 4.30538C20.1708 2.78288 18.9534 1.56556 17.4311 1.56556Z" fill="#1B365D"/>
</svg>
