<svg width="42" height="42" viewBox="0 0 42 42" fill="none" xmlns="http://www.w3.org/2000/svg">
<path fill-rule="evenodd" clip-rule="evenodd" d="M20.9984 4.19067C24.0069 4.19067 26.3634 6.5471 26.3634 9.55567C26.3634 12.5642 24.0069 14.9207 20.9984 14.9207C17.9898 14.9207 15.6334 12.5642 15.6334 9.55567C15.6334 6.5471 17.9898 4.19067 20.9984 4.19067ZM20.9984 6.80796C19.4332 6.80796 18.2507 7.98182 18.2507 9.55567C18.2507 11.1208 19.4332 12.3034 20.9984 12.3034C22.5635 12.3034 23.7461 11.1208 23.7461 9.55567C23.7461 7.99052 22.5635 6.80796 20.9984 6.80796ZM38.0148 18.7202L41.9451 40.3282C42.0842 40.7194 41.9451 41.1107 41.6842 41.3629C41.4234 41.7542 41.0321 41.8846 40.6408 41.8846H1.35546C0.964173 41.8846 0.572886 41.7542 0.312027 41.3629C0.0511681 41.102 -0.0792613 40.7108 0.0511681 40.3195L3.98144 18.5811C4.11187 17.929 4.63359 17.5377 5.28573 17.5377H14.0593L15.2247 19.892H5.77474L2.09974 39.8421H39.8997L36.2247 19.892H26.3631L28.0674 17.6681H36.7105C37.3627 17.6681 37.8844 18.0681 38.0148 18.7202Z" fill="#1B365D"/>
<path d="M20.9986 0C15.6336 0 11.1816 4.45201 11.1816 9.81704C11.1816 11.7822 12.4946 14.6603 14.0598 17.5385L15.3728 20.2862C17.3379 23.5644 19.4335 26.4425 19.8248 26.9642C20.0856 27.3555 20.4769 27.486 20.8682 27.486C21.2595 27.486 21.6508 27.2251 21.9116 26.9642C22.3029 26.4425 24.3985 23.5557 26.3636 20.2862L28.0679 17.6689C29.6417 14.7908 30.946 11.9039 30.946 9.94747C30.8156 4.45201 26.3636 0 20.9986 0ZM20.9986 23.8252C18.2509 20.0254 13.7989 12.9561 13.7989 9.81704C13.7989 5.88674 17.0684 2.6173 20.9986 2.6173C24.9289 2.6173 28.1983 5.88674 28.1983 9.81704C28.1983 12.8256 23.6159 20.0341 20.9986 23.8252Z" fill="#86C8BC"/>
</svg>
