<svg width="34" height="34" viewBox="0 0 34 34" fill="none" xmlns="http://www.w3.org/2000/svg">
<path d="M21.0969 8.30076C21.0969 6.0031 19.2972 4.20349 16.9996 4.20349C14.7019 4.20349 12.9023 6.0031 12.9023 8.30076C12.9023 10.5984 14.7019 12.398 16.9996 12.398C19.2972 12.398 21.0969 10.5984 21.0969 8.30076ZM14.9012 8.30076C14.9012 7.0988 15.8043 6.20232 16.9996 6.20232C18.1949 6.20232 19.098 7.10544 19.098 8.30076C19.098 9.49607 18.1949 10.3992 16.9996 10.3992C15.8043 10.3992 14.9012 9.49607 14.9012 8.30076Z" fill="#1B365D"/>
<path d="M32.9965 31.8019L29.9949 15.3C29.8953 14.8019 29.4969 14.4965 28.9988 14.4965H22.3981L21.0965 16.4953H27.9961L30.7984 30.9984H3.20001L5.80314 16.4953H12.7027L11.7 14.3969H4.99962C4.50158 14.3969 4.10314 14.6957 4.00353 15.1937L1.00197 31.7953C0.902358 32.0941 1.00197 32.3929 1.20119 32.5922C1.40041 32.891 1.69923 32.9906 1.99806 32.9906H32.0004C32.2992 32.9906 32.5981 32.891 32.7973 32.5922C32.9965 32.3996 33.1027 32.1008 32.9965 31.8019Z" fill="#1B365D"/>
<path d="M16.9992 1.00281C12.902 1.00281 9.50195 4.40281 9.50195 8.50007C9.50195 10.0009 10.5047 12.1989 11.7 14.3969L12.7027 16.4954C14.2035 18.9989 15.8039 21.1969 16.1027 21.5954C16.302 21.8942 16.6008 21.9938 16.8996 21.9938C17.1984 21.9938 17.4973 21.7946 17.6965 21.5954C17.9953 21.1969 19.5957 18.9923 21.0965 16.4954L22.398 14.4966C23.6 12.2985 24.5961 10.0938 24.5961 8.59968C24.4965 4.40281 21.0965 1.00281 16.9992 1.00281ZM16.9992 19.1981C14.9008 16.2962 11.5008 10.8973 11.5008 8.50007C11.5008 5.49851 13.9977 3.00164 16.9992 3.00164C20.0008 3.00164 22.4977 5.49851 22.4977 8.50007C22.4977 10.7977 18.998 16.3028 16.9992 19.1981Z" fill="#86C8BC"/>
</svg>
