<svg width="118" height="132" fill="none" xmlns="http://www.w3.org/2000/svg"><g filter="url(#filter0_d)"><path fill-rule="evenodd" clip-rule="evenodd" d="M64.326 76.909c13.186-2.605 23.128-14.232 23.128-28.182C87.454 32.862 74.593 20 58.727 20 42.862 20 30 32.862 30 48.727c0 13.52 9.338 24.857 21.916 27.915L58.545 92l5.781-15.091z" fill="#1B365D"/></g><mask id="a" maskUnits="userSpaceOnUse" x="30" y="20" width="58" height="72"><path fill-rule="evenodd" clip-rule="evenodd" d="M64.326 76.909c13.186-2.605 23.128-14.232 23.128-28.182C87.454 32.862 74.593 20 58.727 20 42.862 20 30 32.862 30 48.727c0 13.52 9.338 24.857 21.916 27.915L58.545 92l5.781-15.091z" fill="#fff"/></mask><defs><filter id="filter0_d" x="0" y="0" width="117.454" height="132" filterUnits="userSpaceOnUse" color-interpolation-filters="sRGB"><feFlood flood-opacity="0" result="BackgroundImageFix"/><feColorMatrix in="SourceAlpha" values="0 0 0 0 0 0 0 0 0 0 0 0 0 0 0 0 0 0 127 0"/><feOffset dy="10"/><feGaussianBlur stdDeviation="15"/><feColorMatrix values="0 0 0 0 0.105882 0 0 0 0 0.211765 0 0 0 0 0.364706 0 0 0 0.3 0"/><feBlend in2="BackgroundImageFix" result="effect1_dropShadow"/><feBlend in="SourceGraphic" in2="effect1_dropShadow" result="shape"/></filter></defs></svg>