<svg width="40" height="40" viewBox="0 0 40 40" fill="none" xmlns="http://www.w3.org/2000/svg">
<path d="M40 6.875C40 6.18461 39.4404 5.625 38.75 5.625H34.4749C31.2726 5.625 28.2415 7.17492 26.3666 9.77086L23.4816 13.7654C22.0754 15.7125 19.8019 16.875 17.4 16.875H16.25C9.3575 16.875 3.75 22.4824 3.75 29.375C3.75 30.0654 4.30969 30.625 5 30.625C5.69031 30.625 6.25 30.0654 6.25 29.375C6.25 23.861 10.7359 19.375 16.25 19.375H17.4001C20.6024 19.375 23.6335 17.8251 25.5084 15.2291L28.3934 11.2346C29.7996 9.2875 32.0731 8.125 34.475 8.125H37.5V8.75C37.5 10.8177 35.8177 12.5 33.75 12.5C33.0596 12.5 32.5 13.0596 32.5 13.75V16.224C32.5 20.7707 30.8364 25.1462 27.8157 28.5445C27.0958 29.3545 27.6832 30.625 28.7495 30.625C29.0941 30.625 29.4373 30.4834 29.6843 30.2055C33.1122 26.3491 35 21.3837 35 16.224V14.8745C35.4348 14.7859 35.853 14.6515 36.25 14.4774V17.5C36.25 18.1904 36.8096 18.75 37.5 18.75C38.1904 18.75 38.75 18.1904 38.75 17.5V12.5C38.75 12.4438 40 11.0714 40 8.75V6.875Z" fill="#86C8BC"/>
<path d="M36.25 31.875H29.375C26.9626 31.875 25 29.9124 25 27.5C25 26.8096 24.4404 26.25 23.75 26.25C23.0596 26.25 22.5 26.8096 22.5 27.5C22.5 28.3816 22.667 29.2248 22.9706 30H12.447C12.1484 28.2288 10.6048 26.875 8.75 26.875C8.05969 26.875 7.5 27.4346 7.5 28.125C7.5 28.8154 8.05969 29.375 8.75 29.375C9.43922 29.375 10 29.9358 10 30.625C10 31.3142 9.43922 31.875 8.75 31.875H1.25C0.559687 31.875 0 32.4346 0 33.125C0 33.8154 0.559687 34.375 1.25 34.375H8.75C10.1349 34.375 11.3461 33.6197 11.9955 32.5H24.6615C25.8931 33.6617 27.5523 34.375 29.375 34.375H36.25C36.9404 34.375 37.5 33.8154 37.5 33.125C37.5 32.4346 36.9404 31.875 36.25 31.875Z" fill="#1B365D"/>
</svg>
