<svg width="40" height="40" viewBox="0 0 40 40" fill="none" xmlns="http://www.w3.org/2000/svg">
<g clip-path="url(#clip0)">
<path d="M35.4141 9.41406H4.59375C2.05469 9.41406 0 11.4687 0 14V33.0547C0 35.5859 2.05469 37.6406 4.59375 37.6406H35.4141C37.9453 37.6406 40.0078 35.5859 40.0078 33.0547V14C40 11.4687 37.9453 9.41406 35.4141 9.41406ZM7.05469 35.2969H4.59375C3.35938 35.2969 2.35938 34.2969 2.35938 33.0625V14C2.35938 12.7656 3.35938 11.7656 4.59375 11.7656H7.0625V35.2969H7.05469ZM30.5859 35.2969H9.41406V11.7656H30.5938V35.2969H30.5859ZM37.6484 33.0547C37.6484 34.2891 36.6484 35.2891 35.4141 35.2891H32.9453V11.7656H35.4141C36.6484 11.7656 37.6484 12.7656 37.6484 14V33.0547Z" fill="#1B365D"/>
<path d="M28.1016 21.0393L26.3359 14.2034L17.2188 16.5627L18.9844 23.3987L28.1016 21.0393ZM24.6484 17.0706L25.2344 19.3518L20.6797 20.5315L20.0938 18.2502L24.6484 17.0706Z" fill="#86C8BC"/>
<path d="M15.6875 32.9373C17.8516 32.9373 19.6094 31.1794 19.6094 29.0154C19.6094 26.8513 17.8516 25.0935 15.6875 25.0935C13.5234 25.0935 11.7656 26.8513 11.7656 29.0154C11.7656 31.1794 13.5234 32.9373 15.6875 32.9373ZM15.6875 27.4529C16.5547 27.4529 17.2578 28.156 17.2578 29.0232C17.2578 29.8904 16.5547 30.5935 15.6875 30.5935C14.8203 30.5935 14.1172 29.8904 14.1172 29.0232C14.1172 28.156 14.8203 27.4529 15.6875 27.4529Z" fill="#86C8BC"/>
<path d="M11.7656 4.70288V9.41381H9.41406V7.05444H7.05469V9.41381H4.70312V4.70288H11.7656Z" fill="#86C8BC"/>
<path d="M26.0391 9.41382H23.625L22.6328 4.96069C22.6016 4.81226 22.4688 4.71069 22.3203 4.71069H17.6719C17.5156 4.71069 17.3906 4.81226 17.3594 4.96069L16.3672 9.41382H13.9531L15.0625 4.45288C15.3359 3.21851 16.4141 2.35913 17.6719 2.35913H22.3203C23.5859 2.35913 24.6562 3.21851 24.9297 4.45288L26.0391 9.41382Z" fill="#86C8BC"/>
<path d="M35.2969 4.70288V9.41381H32.9453V7.05444H30.5859V9.41381H28.2344V4.70288H35.2969Z" fill="#86C8BC"/>
</g>
<defs>
<clipPath id="clip0">
<rect width="40" height="40" fill="white"/>
</clipPath>
</defs>
</svg>
