<svg width="40" height="40" viewBox="0 0 40 40" fill="none" xmlns="http://www.w3.org/2000/svg">
<path d="M7.5 40C7.39062 40 7.28125 39.9766 7.17969 39.9375C6.86719 39.8125 6.66406 39.5078 6.66406 39.1641V31.6641H4.16406C1.86719 31.6641 0 29.7969 0 27.5V4.16406C0 1.86719 1.86719 0 4.16406 0H35.8281C38.1328 0 40 1.86719 40 4.16406V27.5C40 29.7969 38.1328 31.6641 35.8359 31.6641H16.1797L8.08594 39.7578C7.92969 39.9141 7.71875 40 7.5 40ZM3.99976 2.33569C3.33545 2.33569 2.49976 2.78906 2.49976 4.16406V27.5C2.49976 28.875 3.49976 29.5 4.16406 29.5H7.17969C7.64062 29.5 8.49976 30 8.49976 31V36.5L14.9998 30C15.156 29.8438 15.4998 29.5 16.1797 29.5H35.8281C36.4998 29.5 37.9998 28.875 37.9998 27.5V4.16406C37.9998 3.5 37.0466 2.33569 35.6716 2.33569H3.99976Z" fill="#1B365D"/>
<path d="M10.7014 10.5924L5.99489 25.0732H3.75781L9.43656 8.37256H12.035L17.7396 25.0732H15.4337C15.4337 25.0732 10.9509 11.5561 10.7014 10.5924Z" fill="#1B365D"/>
<path d="M22.8076 23.8087L32.0743 10.2486V10.1711H23.5992V8.36426H34.8793V9.68069L25.6556 23.1892V23.2667H34.9997V25.0735H22.8076V23.8087Z" fill="#86C8BC"/>
<path d="M20.6618 14.028C20.6618 14.028 18.5541 13.9651 18.6035 14.028C18.6447 14.0729 19.6738 15.6182 20.349 16.6425H10V18.4394H20.349L18.6447 21H20.6206L23 17.5409L20.6618 14.028Z" fill="#86C8BC"/>
</svg>
