<svg width="40" height="40" viewBox="0 0 40 40" fill="none" xmlns="http://www.w3.org/2000/svg">
<g clip-path="url(#clip0)">
<path d="M13.75 9.29688C13.75 6.84375 11.75 4.84375 9.29688 4.84375C6.84375 4.84375 4.84375 6.84375 4.84375 9.29688C4.84375 11.75 6.84375 13.75 9.29688 13.75C11.75 13.75 13.75 11.75 13.75 9.29688ZM7.1875 9.29688C7.1875 8.13281 8.13281 7.1875 9.29688 7.1875C10.4609 7.1875 11.4062 8.13281 11.4062 9.29688C11.4062 10.4609 10.4609 11.4062 9.29688 11.4062C8.13281 11.4062 7.1875 10.4609 7.1875 9.29688Z" fill="#1B365D"/>
<path d="M3.90625 37.6562C3.04688 37.6562 2.34375 36.9531 2.34375 36.0938C2.34375 35.2344 3.04688 34.5312 3.90625 34.5312H14.6875C16.8438 34.5312 18.5938 32.7813 18.5938 30.625C18.5938 28.4688 16.8438 26.7188 14.6875 26.7188H12.0312C11.1719 26.7188 10.4688 26.0156 10.4688 25.1563V21.1641H8.125V25.1563C8.125 27.3125 9.875 29.0625 12.0312 29.0625H14.6875C15.5469 29.0625 16.25 29.7656 16.25 30.625C16.25 31.4844 15.5469 32.1875 14.6875 32.1875H3.90625C1.75 32.1875 0 33.9375 0 36.0938C0 38.25 1.75 40 3.90625 40H37.5547L37.7656 37.6562H3.90625Z" fill="#1B365D"/>
<path d="M37.5391 20.0234C38.1016 19.25 38.4375 18.2969 38.4375 17.2656C38.4375 14.6797 36.3359 12.5781 33.75 12.5781C31.1641 12.5781 29.0625 14.6797 29.0625 17.2656C29.0625 18.2969 29.3984 19.25 29.9609 20.0234C28.5078 20.7109 27.5 22.1953 27.5 23.9062V31.25H29.1641L29.7344 37.6562H32.0859L31.5156 31.25H35.9844L35.4141 37.6562H37.7656L38.3359 31.25H40V23.9062C40 22.1953 38.9922 20.7109 37.5391 20.0234ZM33.75 14.9219C35.0391 14.9219 36.0938 15.9766 36.0938 17.2656C36.0938 18.5547 35.0391 19.6094 33.75 19.6094C32.4609 19.6094 31.4062 18.5547 31.4062 17.2656C31.4062 15.9766 32.4609 14.9219 33.75 14.9219ZM37.6562 28.9062H29.8438V23.9062C29.8438 22.8281 30.7188 21.9531 31.7969 21.9531H35.7031C36.7812 21.9531 37.6562 22.8281 37.6562 23.9062V28.9062Z" fill="#86C8BC"/>
<path d="M9.29688 0C4.17188 0 0 4.17188 0 9.29688C0 14.9922 6.21875 19.8203 8.125 21.1641H10.4688C12.375 19.8203 18.5938 14.9844 18.5938 9.29688C18.5938 4.17188 14.4219 0 9.29688 0ZM12.5547 16.3203C11.2969 17.5938 10.0312 18.5859 9.29688 19.1172C8.57031 18.5938 7.32031 17.6172 6.07031 16.3516C4.36719 14.6328 2.34375 12.0078 2.34375 9.29688C2.34375 5.46094 5.46094 2.34375 9.29688 2.34375C13.1328 2.34375 16.25 5.46094 16.25 9.29688C16.25 11.9922 14.2422 14.6094 12.5547 16.3203Z" fill="#86C8BC"/>
</g>
<defs>
<clipPath id="clip0">
<rect width="40" height="40" fill="white"/>
</clipPath>
</defs>
</svg>
