<?xml version="1.0" standalone="no"?>
<!DOCTYPE svg PUBLIC "-//W3C//DTD SVG 20010904//EN"
 "http://www.w3.org/TR/2001/REC-SVG-20010904/DTD/svg10.dtd">
<svg version="1.0" xmlns="http://www.w3.org/2000/svg"
 width="260.000000pt" height="260.000000pt" viewBox="0 0 260.000000 260.000000"
 preserveAspectRatio="xMidYMid meet">
<metadata>
Created by potrace 1.11, written by Peter Selinger 2001-2013
</metadata>
<g transform="translate(0.000000,260.000000) scale(0.100000,-0.100000)"
fill="#000000" stroke="none">
<path d="M1229 2593 c-6 -46 -3 -146 5 -150 5 -3 37 -8 72 -10 294 -18 606
-237 723 -508 12 -27 26 -59 31 -70 44 -100 63 -271 47 -417 -15 -140 -80
-303 -165 -417 -22 -29 -248 -262 -501 -517 -253 -256 -465 -474 -471 -484
-10 -19 -7 -20 94 -20 l105 0 397 398 c430 431 494 499 546 582 65 103 127
255 143 354 3 17 8 38 11 48 9 31 12 213 3 286 -51 450 -381 812 -833 912 -68
15 -206 24 -207 13z"/>
<path d="M1100 2264 c-282 -53 -500 -253 -576 -529 -23 -82 -27 -262 -8 -344
59 -255 246 -460 489 -537 l80 -25 237 239 c211 212 241 246 270 307 61 131
44 298 -41 411 -214 284 -657 181 -721 -169 -11 -58 -7 -123 11 -192 14 -50
81 -151 126 -189 l34 -29 59 58 59 58 -49 44 c-116 104 -109 283 14 374 154
113 373 11 382 -179 5 -104 -10 -128 -224 -344 -114 -115 -203 -198 -214 -198
-35 0 -133 64 -198 129 -109 111 -162 235 -163 385 -1 108 5 147 37 225 49
121 143 226 255 285 226 118 482 82 661 -93 190 -187 224 -487 82 -707 -25
-38 -203 -225 -475 -499 -505 -507 -491 -492 -544 -570 -37 -55 -93 -157 -93
-170 0 -3 40 -5 88 -5 l89 0 46 72 c35 55 158 186 510 539 255 256 478 486
495 511 195 284 176 656 -48 910 -52 59 -146 131 -223 170 -124 62 -310 88
-447 62z"/>
<path d="M2439 1532 c-11 -204 -48 -360 -124 -517 -77 -160 -123 -214 -527
-620 l-387 -390 111 -3 112 -3 309 308 c170 169 337 344 372 388 175 222 274
484 291 767 l5 87 -80 0 c-68 0 -81 -3 -82 -17z"/>
</g>
</svg>
