<svg width="16" height="22" viewBox="0 0 16 22" fill="none" xmlns="http://www.w3.org/2000/svg">
<path d="M11.3106 8L15.2803 4.03025C15.3851 3.92536 15.4565 3.79174 15.4854 3.64627C15.5144 3.50081 15.4995 3.35003 15.4428 3.21301C15.386 3.07598 15.2899 2.95886 15.1666 2.87645C15.0433 2.79404 14.8983 2.75003 14.75 2.75H4.25V1.25C4.25 1.05109 4.17098 0.860322 4.03033 0.71967C3.88968 0.579018 3.69891 0.5 3.5 0.5C3.30109 0.5 3.11032 0.579018 2.96967 0.71967C2.82902 0.860322 2.75 1.05109 2.75 1.25V20H1.25C1.05109 20 0.860322 20.079 0.71967 20.2197C0.579018 20.3603 0.5 20.5511 0.5 20.75C0.5 20.9489 0.579018 21.1397 0.71967 21.2803C0.860322 21.421 1.05109 21.5 1.25 21.5H5.75C5.94891 21.5 6.13968 21.421 6.28033 21.2803C6.42098 21.1397 6.5 20.9489 6.5 20.75C6.5 20.5511 6.42098 20.3603 6.28033 20.2197C6.13968 20.079 5.94891 20 5.75 20H4.25V13.25H14.75C14.8983 13.25 15.0433 13.206 15.1666 13.1236C15.2899 13.0411 15.386 12.924 15.4428 12.787C15.4995 12.65 15.5144 12.4992 15.4854 12.3537C15.4565 12.2083 15.3851 12.0746 15.2803 11.9697L11.3106 8ZM4.25 11.75V4.25H12.9394L9.71975 7.46975C9.65008 7.53936 9.5948 7.62202 9.55709 7.713C9.51938 7.80399 9.49997 7.90151 9.49997 8C9.49997 8.09849 9.51938 8.19601 9.55709 8.287C9.5948 8.37798 9.65008 8.46064 9.71975 8.53025L12.9394 11.75H4.25Z" fill="#1B365D"/>
</svg>
