<svg width="22" height="12" viewBox="0 0 22 12" fill="none" xmlns="http://www.w3.org/2000/svg">
<path d="M16.1476 0.645236C16.0535 0.738606 16.0003 0.865534 15.9997 0.998134C15.999 1.13103 16.0511 1.25878 16.1448 1.35314L20.2947 5.49804L0.499975 5.49804C0.223863 5.49809 -2.52567e-07 5.72195 -2.40497e-07 5.99806C-2.28428e-07 6.27418 0.223863 6.49804 0.499975 6.49804L20.2946 6.49804L16.1447 10.6429C15.9486 10.839 15.9486 11.1569 16.1447 11.353C16.3408 11.549 16.6586 11.549 16.8547 11.353L21.8546 6.35302C22.0485 6.15799 22.0485 5.84303 21.8546 5.64805L16.8547 0.648116C16.6602 0.452096 16.3437 0.450806 16.1476 0.645236Z" fill="white"/>
</svg>
