<?xml version="1.0" encoding="utf-8"?>
<!-- Generator: Adobe Illustrator 19.0.0, SVG Export Plug-In . SVG Version: 6.00 Build 0)  -->
<svg version="1.1" id="Layer_1" xmlns="http://www.w3.org/2000/svg" xmlns:xlink="http://www.w3.org/1999/xlink" x="0px" y="0px"
	 viewBox="-247 370.9 100 100" style="enable-background:new -247 370.9 100 100;" xml:space="preserve">
<g>
	<path d="M-198.3,430c0,13.4-10.9,24.3-24.3,24.3c-13.4,0-23.1-10.5-24.3-23.9c-1.7-20.4,13.8-37.5,32.6-42.9
		c-6.4,3.9-10.9,10.6-11.6,18.5c1.1-0.2,2.2-0.3,3.3-0.3C-209.2,405.7-198.3,416.6-198.3,430z"/>
	<path d="M-147,430c0,13.4-10.9,24.3-24.3,24.3c-13.4,0-23.1-10.5-24.3-23.9c-1.7-20.4,13.8-37.5,32.6-42.9
		c-6.4,3.9-10.9,10.6-11.6,18.5c1.1-0.2,2.2-0.3,3.3-0.3C-157.9,405.7-147,416.6-147,430z"/>
</g>
</svg>
